<svg width="14" height="14" viewBox="0 0 14 14" fill="none" xmlns="http://www.w3.org/2000/svg">
<path fill-rule="evenodd" clip-rule="evenodd" d="M7.94474 2.37645C8.16272 2.28616 8.41362 2.33607 8.58045 2.5029L12.6638 6.58624C12.8916 6.81404 12.8916 7.18339 12.6638 7.41119L8.58045 11.4945C8.41362 11.6614 8.16272 11.7113 7.94474 11.621C7.72677 11.5307 7.58464 11.318 7.58464 11.082V9.33205C5.79126 9.33205 3.99787 9.3314 2.20448 9.33205C2.135 9.33208 2.05201 9.33211 1.97891 9.32614C1.8942 9.31922 1.77287 9.30146 1.64573 9.23668C1.48109 9.15279 1.34723 9.01893 1.26335 8.85429C1.19857 8.72716 1.18081 8.60583 1.17389 8.52112C1.16791 8.44801 1.16795 8.36503 1.16797 8.29555C1.1683 7.43099 1.1683 6.56644 1.16797 5.70188C1.16795 5.6324 1.16791 5.54942 1.17389 5.47631C1.18081 5.3916 1.19857 5.27028 1.26335 5.14314C1.34723 4.9785 1.48109 4.84464 1.64573 4.76075C1.77287 4.69597 1.8942 4.67821 1.97891 4.67129C2.05201 4.66532 2.13499 4.66535 2.20448 4.66538C3.99787 4.66609 5.79125 4.66538 7.58464 4.66538V2.91538C7.58464 2.67945 7.72677 2.46674 7.94474 2.37645Z" fill="black"/>
</svg>
