<svg width="20" height="20" viewBox="0 0 20 20" fill="none" xmlns="http://www.w3.org/2000/svg">
<path fill-rule="evenodd" clip-rule="evenodd" d="M11.8704 1.66797H8.13486C7.46405 1.66796 6.91041 1.66795 6.45942 1.7048C5.991 1.74307 5.56042 1.82521 5.15597 2.03128C4.52876 2.35086 4.01883 2.86079 3.69925 3.488C3.49317 3.89245 3.41104 4.32303 3.37277 4.79145C3.33592 5.24244 3.33593 5.79607 3.33594 6.46687V17.5013C3.33594 17.7984 3.49407 18.073 3.751 18.2221C4.00793 18.3712 4.3248 18.3722 4.58272 18.2248L10.0026 15.1278L15.4225 18.2248C15.6804 18.3722 15.9973 18.3712 16.2542 18.2221C16.5111 18.073 16.6693 17.7984 16.6693 17.5013V6.46691C16.6693 5.7961 16.6693 5.24244 16.6324 4.79145C16.5942 4.32303 16.512 3.89245 16.306 3.488C15.9864 2.86079 15.4764 2.35086 14.8492 2.03128C14.4448 1.82521 14.0142 1.74307 13.5458 1.7048C13.0948 1.66795 12.5412 1.66796 11.8704 1.66797ZM7.5026 7.5013C7.04237 7.5013 6.66927 7.8744 6.66927 8.33464C6.66927 8.79487 7.04237 9.16797 7.5026 9.16797H12.5026C12.9628 9.16797 13.3359 8.79487 13.3359 8.33464C13.3359 7.8744 12.9628 7.5013 12.5026 7.5013H7.5026Z" fill="green"/>
</svg>
