<svg width="21" height="21" viewBox="0 0 21 21" fill="none" xmlns="http://www.w3.org/2000/svg">
<g clip-path="url(#clip0_3600_23204)">
<path d="M9.25586 9.66667H5.25586C4.32244 9.66667 3.85573 9.66667 3.49921 9.84832C3.18561 10.0081 2.93064 10.2631 2.77085 10.5767C2.58919 10.9332 2.58919 11.3999 2.58919 12.3333V18M17.5892 18V5.66667C17.5892 4.73325 17.5892 4.26654 17.4075 3.91002C17.2477 3.59641 16.9928 3.34144 16.6792 3.18166C16.3227 3 15.8559 3 14.9225 3H11.9225C10.9891 3 10.5224 3 10.1659 3.18166C9.85227 3.34144 9.5973 3.59641 9.43752 3.91002C9.25586 4.26654 9.25586 4.73325 9.25586 5.66667V18M18.4225 18H1.75586M12.1725 6.33333H14.6725M12.1725 9.66667H14.6725M12.1725 13H14.6725" stroke="#344054" stroke-width="1.66667" stroke-linecap="round" stroke-linejoin="round"/>
</g>
<defs>
<clipPath id="clip0_3600_23204">
<rect width="20" height="20" fill="white" transform="translate(0.0898438 0.5)"/>
</clipPath>
</defs>
</svg>
