<svg width="40" height="40" viewBox="0 0 40 40" fill="none" xmlns="http://www.w3.org/2000/svg">
<rect width="40" height="40" rx="20" fill="#EDECEA"/>
<path d="M26 18.6673H14M22.6667 13.334V16.0007M17.3333 13.334V16.0007M17.2 26.6673H22.8C23.9201 26.6673 24.4802 26.6673 24.908 26.4493C25.2843 26.2576 25.5903 25.9516 25.782 25.5753C26 25.1475 26 24.5874 26 23.4673V17.8673C26 16.7472 26 16.1872 25.782 15.7593C25.5903 15.383 25.2843 15.0771 24.908 14.8853C24.4802 14.6673 23.9201 14.6673 22.8 14.6673H17.2C16.0799 14.6673 15.5198 14.6673 15.092 14.8853C14.7157 15.0771 14.4097 15.383 14.218 15.7593C14 16.1872 14 16.7472 14 17.8673V23.4673C14 24.5874 14 25.1475 14.218 25.5753C14.4097 25.9516 14.7157 26.2576 15.092 26.4493C15.5198 26.6673 16.0799 26.6673 17.2 26.6673Z" stroke="#050505" stroke-width="1.5" stroke-linecap="round" stroke-linejoin="round"/>
</svg>
