<svg width="44" height="45" viewBox="0 0 44 45" fill="none" xmlns="http://www.w3.org/2000/svg">
<g filter="url(#filter0_d_730_122927)">
<rect x="2" y="1.5" width="40" height="40" rx="20" fill="#0087F4"/>
<path d="M29.9965 12.7159C29.6666 12.6057 29.3596 12.6854 29.2069 12.7297C29.0406 12.7781 28.8423 12.8555 28.6434 12.9331L14.5125 18.4476C14.2901 18.5344 14.0747 18.6184 13.9085 18.7006C13.7649 18.7716 13.4596 18.9297 13.2892 19.2577C13.1013 19.6194 13.1015 20.05 13.2899 20.4115C13.4607 20.7393 13.7661 20.897 13.9098 20.9679C14.0762 21.0499 14.2916 21.1336 14.5141 21.2201L18.4474 22.7497C18.7408 22.8639 18.8876 22.9209 19.0335 22.9244C19.1625 22.9275 19.2905 22.9006 19.4074 22.8458C19.5395 22.7838 19.6509 22.6725 19.8735 22.4499L23.9113 18.412C24.2368 18.0866 24.7644 18.0866 25.0898 18.412C25.4153 18.7375 25.4153 19.2651 25.0898 19.5906L21.052 23.6284C20.8294 23.851 20.7181 23.9623 20.6561 24.0945C20.6013 24.2114 20.5744 24.3393 20.5775 24.4684C20.581 24.6143 20.638 24.761 20.7521 25.0545L22.2817 28.9877C22.3682 29.2102 22.452 29.4257 22.534 29.592C22.6048 29.7357 22.7625 30.0412 23.0903 30.212C23.4518 30.4003 23.8825 30.4006 24.2442 30.2127C24.5722 30.0423 24.7303 29.737 24.8013 29.5934C24.8835 29.4271 24.9675 29.2118 25.0542 28.9894L30.5687 14.8585C30.6464 14.6596 30.7238 14.4613 30.7721 14.2949C30.8165 14.1423 30.8962 13.8352 30.786 13.5054C30.6615 13.1328 30.3691 12.8404 29.9965 12.7159Z" fill="white"/>
<rect x="2.5" y="2" width="39" height="39" rx="19.5" stroke="#0087F4"/>
</g>
<defs>
<filter id="filter0_d_730_122927" x="0" y="0.5" width="44" height="44" filterUnits="userSpaceOnUse" color-interpolation-filters="sRGB">
<feFlood flood-opacity="0" result="BackgroundImageFix"/>
<feColorMatrix in="SourceAlpha" type="matrix" values="0 0 0 0 0 0 0 0 0 0 0 0 0 0 0 0 0 0 127 0" result="hardAlpha"/>
<feOffset dy="1"/>
<feGaussianBlur stdDeviation="1"/>
<feColorMatrix type="matrix" values="0 0 0 0 0.0627451 0 0 0 0 0.0941176 0 0 0 0 0.156863 0 0 0 0.05 0"/>
<feBlend mode="normal" in2="BackgroundImageFix" result="effect1_dropShadow_730_122927"/>
<feBlend mode="normal" in="SourceGraphic" in2="effect1_dropShadow_730_122927" result="shape"/>
</filter>
</defs>
</svg>
