<svg width="24" height="25" viewBox="0 0 24 25" fill="none" xmlns="http://www.w3.org/2000/svg">
<path d="M20 7.5V7.3C20 5.61984 20 4.77976 19.673 4.13803C19.3854 3.57354 18.9265 3.1146 18.362 2.82698C17.7202 2.5 16.8802 2.5 15.2 2.5H8.8C7.11984 2.5 6.27976 2.5 5.63803 2.82698C5.07354 3.1146 4.6146 3.57354 4.32698 4.13803C4 4.77976 4 5.61984 4 7.3V17.7C4 19.3802 4 20.2202 4.32698 20.862C4.6146 21.4265 5.07354 21.8854 5.63803 22.173C6.27976 22.5 7.11984 22.5 8.8 22.5H12.5M12.5 11.5H8M11.5 15.5H8M16 7.5H8M18 18.5V13C18 12.1716 18.6716 11.5 19.5 11.5C20.3284 11.5 21 12.1716 21 13V18.5C21 20.1569 19.6569 21.5 18 21.5C16.3431 21.5 15 20.1569 15 18.5V14.5" stroke="black" stroke-width="1.5" stroke-linecap="round" stroke-linejoin="round"/>
</svg>
