<svg width="40" height="40" viewBox="0 0 40 40" fill="none" xmlns="http://www.w3.org/2000/svg">
<rect width="40" height="40" rx="20" fill="#D0F1E1"/>
<path fill-rule="evenodd" clip-rule="evenodd" d="M20 9C13.9249 9 9 13.9249 9 20C9 26.0751 13.9249 31 20 31C26.0751 31 31 26.0751 31 20C31 13.9249 26.0751 9 20 9ZM25.2071 17.7071C25.5976 17.3166 25.5976 16.6834 25.2071 16.2929C24.8166 15.9024 24.1834 15.9024 23.7929 16.2929L18.5 21.5858L16.2071 19.2929C15.8166 18.9024 15.1834 18.9024 14.7929 19.2929C14.4024 19.6834 14.4024 20.3166 14.7929 20.7071L17.7929 23.7071C18.1834 24.0976 18.8166 24.0976 19.2071 23.7071L25.2071 17.7071Z" fill="#12B76A"/>
</svg>
