<svg width="40" height="40" viewBox="0 0 40 40" fill="none" xmlns="http://www.w3.org/2000/svg">
<rect width="40" height="40" rx="20" fill="#FCF1D4"/>
<path fill-rule="evenodd" clip-rule="evenodd" d="M20 9C13.9249 9 9 13.9249 9 20C9 26.0751 13.9249 31 20 31C26.0751 31 31 26.0751 31 20C31 13.9249 26.0751 9 20 9ZM18.6315 16.4646C19.0597 16.8134 19.1242 17.4433 18.7754 17.8715C18.2153 18.5593 17.4029 19 16.5 19C15.5872 19 14.7988 18.551 14.2363 17.8856C13.8798 17.4638 13.9327 16.8329 14.3544 16.4763C14.7762 16.1198 15.4072 16.1727 15.7637 16.5944C16.0212 16.8991 16.2829 17 16.5 17C16.7272 17 16.9948 16.8907 17.2246 16.6085C17.5734 16.1803 18.2033 16.1159 18.6315 16.4646ZM25.6315 16.4646C26.0597 16.8134 26.1242 17.4433 25.7754 17.8715C25.2153 18.5593 24.4029 19 23.5 19C22.5872 19 21.7988 18.551 21.2363 17.8856C20.8798 17.4638 20.9327 16.8329 21.3544 16.4763C21.7762 16.1198 22.4072 16.1727 22.7637 16.5944C23.0212 16.8991 23.2829 17 23.5 17C23.7272 17 23.9948 16.8907 24.2246 16.6085C24.5734 16.1803 25.2033 16.1159 25.6315 16.4646ZM15.4001 24.8C15.8405 25.1304 16.4648 25.0424 16.7969 24.6042L16.8016 24.5983C16.8075 24.5907 16.8188 24.5767 16.8354 24.557C16.8685 24.5175 16.9223 24.4559 16.9955 24.3794C17.1428 24.2257 17.3641 24.0172 17.6508 23.8088C18.2278 23.3891 19.0256 23 20.0001 23C20.9745 23 21.7723 23.3891 22.3494 23.8088C22.636 24.0172 22.8574 24.2257 23.0047 24.3794C23.0779 24.4559 23.1316 24.5175 23.1648 24.557C23.1813 24.5767 23.1926 24.5907 23.1986 24.5983L23.2032 24.6042C23.5354 25.0424 24.1596 25.1304 24.6001 24.8C25.0419 24.4687 25.1315 23.8419 24.8001 23.4L24.6967 23.2712C24.6381 23.2013 24.5551 23.1067 24.4486 22.9956C24.2366 22.7743 23.9266 22.4828 23.5258 22.1913C22.7278 21.611 21.5256 21 20.0001 21C18.4745 21 17.2723 21.611 16.4744 22.1913C16.0735 22.4828 15.7636 22.7743 15.5515 22.9956C15.4451 23.1067 15.3621 23.2013 15.3034 23.2712C15.268 23.3134 15.2338 23.3565 15.2001 23.4C14.8687 23.8419 14.9583 24.4687 15.4001 24.8Z" fill="#F1B928"/>
</svg>
