<svg width="20" height="20" viewBox="0 0 20 20" fill="none" xmlns="http://www.w3.org/2000/svg">
<g clip-path="url(#clip0_3003_80868)">
<path d="M18.3327 9.23941V10.0061C18.3317 11.8031 17.7498 13.5516 16.6738 14.9909C15.5978 16.4302 14.0854 17.4831 12.3621 17.9927C10.6389 18.5022 8.79707 18.441 7.11141 17.8182C5.42575 17.1955 3.98656 16.0445 3.00848 14.537C2.0304 13.0294 1.56584 11.2461 1.68408 9.453C1.80232 7.65988 2.49702 5.95301 3.66458 4.58697C4.83214 3.22092 6.41 2.26889 8.16284 1.87286C9.91568 1.47683 11.7496 1.65802 13.391 2.38941M18.3327 3.33464L9.99935 11.6763L7.49935 9.1763" stroke="black" stroke-width="1.5" stroke-linecap="round" stroke-linejoin="round"/>
</g>
<defs>
<clipPath id="clip0_3003_80868">
<rect width="20" height="20" fill="white"/>
</clipPath>
</defs>
</svg>
