<svg width="20" height="20" viewBox="0 0 20 20" fill="none" xmlns="http://www.w3.org/2000/svg">
<path d="M8.125 17.2902L9.35248 17.9721C9.58881 18.1034 9.70698 18.1691 9.83213 18.1948C9.94288 18.2176 10.0571 18.2176 10.1679 18.1948C10.293 18.1691 10.4112 18.1034 10.6475 17.9721L11.875 17.2902M4.375 15.2069L3.18581 14.5462C2.93621 14.4075 2.8114 14.3382 2.72053 14.2396C2.64013 14.1523 2.57929 14.0489 2.54207 13.9363C2.5 13.809 2.5 13.6662 2.5 13.3807V12.0819M2.5 7.91519V6.6164C2.5 6.33086 2.5 6.18809 2.54207 6.06076C2.57929 5.94811 2.64013 5.84471 2.72053 5.75747C2.8114 5.65886 2.93621 5.58952 3.18581 5.45085L4.375 4.79019M8.125 2.70686L9.35248 2.02493C9.58881 1.89363 9.70698 1.82798 9.83213 1.80224C9.94288 1.77946 10.0571 1.77946 10.1679 1.80224C10.293 1.82798 10.4112 1.89363 10.6475 2.02493L11.875 2.70686M15.625 4.79019L16.8142 5.45085C17.0638 5.58952 17.1886 5.65886 17.2795 5.75747C17.3599 5.84471 17.4207 5.94811 17.4579 6.06076C17.5 6.18809 17.5 6.33086 17.5 6.6164V7.91519M17.5 12.0819V13.3807C17.5 13.6662 17.5 13.809 17.4579 13.9363C17.4207 14.0489 17.3599 14.1523 17.2795 14.2396C17.1886 14.3382 17.0638 14.4075 16.8142 14.5462L15.625 15.2069M8.125 8.95686L10 9.99852M10 9.99852L11.875 8.95686M10 9.99852V12.0819M2.5 5.83186L4.375 6.87352M15.625 6.87352L17.5 5.83186M10 16.2485V18.3319" stroke="white" stroke-width="1.5" stroke-linecap="round" stroke-linejoin="round"/>
</svg>
