<svg width="20" height="21" viewBox="0 0 20 21" fill="none" xmlns="http://www.w3.org/2000/svg">
<path d="M9.99984 18.8346C14.6022 18.8346 18.3332 15.1037 18.3332 10.5013C18.3332 5.89893 14.6022 2.16797 9.99984 2.16797C5.39746 2.16797 1.6665 5.89893 1.6665 10.5013C1.6665 15.1037 5.39746 18.8346 9.99984 18.8346Z" stroke="black" stroke-width="1.5" stroke-linecap="round" stroke-linejoin="round"/>
<path d="M12.2683 7.38961C12.6754 7.2539 12.8789 7.18604 13.0143 7.23432C13.1321 7.27632 13.2248 7.36903 13.2668 7.48683C13.3151 7.6222 13.2472 7.82576 13.1115 8.23288L11.8719 11.9517C11.8333 12.0677 11.8139 12.1257 11.781 12.1738C11.7518 12.2165 11.715 12.2533 11.6723 12.2825C11.6242 12.3154 11.5662 12.3347 11.4503 12.3734L7.73142 13.613C7.32429 13.7487 7.12073 13.8166 6.98536 13.7683C6.86756 13.7263 6.77486 13.6336 6.73285 13.5158C6.68458 13.3804 6.75243 13.1768 6.88814 12.7697L8.12776 9.05086C8.16641 8.93491 8.18574 8.87694 8.21867 8.82879C8.24784 8.78615 8.28469 8.74931 8.32733 8.72014C8.37547 8.6872 8.43345 8.66788 8.5494 8.62923L12.2683 7.38961Z" stroke="black" stroke-width="1.5" stroke-linecap="round" stroke-linejoin="round"/>
</svg>
