<svg width="20" height="20" viewBox="0 0 20 20" fill="none" xmlns="http://www.w3.org/2000/svg">
<path d="M9.9987 10.8346C10.4589 10.8346 10.832 10.4615 10.832 10.0013C10.832 9.54106 10.4589 9.16797 9.9987 9.16797C9.53846 9.16797 9.16536 9.54106 9.16536 10.0013C9.16536 10.4615 9.53846 10.8346 9.9987 10.8346Z" stroke="#050505" stroke-width="1.66667" stroke-linecap="round" stroke-linejoin="round"/>
<path d="M15.832 10.8346C16.2923 10.8346 16.6654 10.4615 16.6654 10.0013C16.6654 9.54106 16.2923 9.16797 15.832 9.16797C15.3718 9.16797 14.9987 9.54106 14.9987 10.0013C14.9987 10.4615 15.3718 10.8346 15.832 10.8346Z" stroke="#050505" stroke-width="1.66667" stroke-linecap="round" stroke-linejoin="round"/>
<path d="M4.16536 10.8346C4.6256 10.8346 4.9987 10.4615 4.9987 10.0013C4.9987 9.54106 4.6256 9.16797 4.16536 9.16797C3.70513 9.16797 3.33203 9.54106 3.33203 10.0013C3.33203 10.4615 3.70513 10.8346 4.16536 10.8346Z" stroke="#050505" stroke-width="1.66667" stroke-linecap="round" stroke-linejoin="round"/>
</svg>
