<svg width="18" height="18" viewBox="0 0 18 18" fill="none" xmlns="http://www.w3.org/2000/svg">
<path fill-rule="evenodd" clip-rule="evenodd" d="M7.125 3.75C7.125 4.57841 6.45341 5.25 5.625 5.25C4.79659 5.25 4.125 4.57841 4.125 3.75C4.125 2.92157 4.79659 2.25 5.625 2.25C6.45341 2.25 7.125 2.92157 7.125 3.75ZM5.625 10.5C6.45341 10.5 7.125 9.82841 7.125 9C7.125 8.17159 6.45341 7.5 5.625 7.5C4.79659 7.5 4.125 8.17159 4.125 9C4.125 9.82841 4.79659 10.5 5.625 10.5ZM5.625 15.75C6.45341 15.75 7.125 15.0784 7.125 14.25C7.125 13.4216 6.45341 12.75 5.625 12.75C4.79659 12.75 4.125 13.4216 4.125 14.25C4.125 15.0784 4.79659 15.75 5.625 15.75Z" fill="#94A3A9"/>
<path fill-rule="evenodd" clip-rule="evenodd" d="M13.875 3.75C13.875 4.57841 13.2034 5.25 12.375 5.25C11.5466 5.25 10.875 4.57841 10.875 3.75C10.875 2.92157 11.5466 2.25 12.375 2.25C13.2034 2.25 13.875 2.92157 13.875 3.75ZM12.375 10.5C13.2034 10.5 13.875 9.82841 13.875 9C13.875 8.17159 13.2034 7.5 12.375 7.5C11.5466 7.5 10.875 8.17159 10.875 9C10.875 9.82841 11.5466 10.5 12.375 10.5ZM12.375 15.75C13.2034 15.75 13.875 15.0784 13.875 14.25C13.875 13.4216 13.2034 12.75 12.375 12.75C11.5466 12.75 10.875 13.4216 10.875 14.25C10.875 15.0784 11.5466 15.75 12.375 15.75Z" fill="#94A3A9"/>
</svg>
