<svg width="18" height="18" viewBox="0 0 18 18" fill="none" xmlns="http://www.w3.org/2000/svg">
<path d="M8.99998 14.9992H15.75M2.25 14.9992H3.50591C3.87279 14.9992 4.05624 14.9992 4.22887 14.9577C4.38192 14.921 4.52824 14.8604 4.66245 14.7782C4.81382 14.6854 4.94354 14.5557 5.20296 14.2962L14.625 4.87419C15.2463 4.25287 15.2463 3.24551 14.625 2.62419C14.0037 2.00287 12.9963 2.00287 12.375 2.62419L2.95295 12.0462C2.69352 12.3057 2.5638 12.4354 2.47104 12.5868C2.3888 12.721 2.32819 12.8673 2.29145 13.0203C2.25 13.193 2.25 13.3764 2.25 13.7433V14.9992Z" stroke="black" stroke-width="1.5" stroke-linecap="round" stroke-linejoin="round"/>
</svg>
