<svg width="36" height="36" viewBox="0 0 36 36" fill="none" xmlns="http://www.w3.org/2000/svg">
<path d="M25.4987 25.499H18.8321M10.082 25.9156L14.7064 24.137C15.0022 24.0232 15.1501 23.9664 15.2885 23.8921C15.4114 23.8261 15.5285 23.75 15.6387 23.6645C15.7628 23.5682 15.8748 23.4561 16.0989 23.2321L25.4987 13.8323C26.4192 12.9118 26.4192 11.4194 25.4987 10.4989C24.5782 9.57848 23.0859 9.57847 22.1654 10.4989L12.7656 19.8987C12.5415 20.1228 12.4295 20.2348 12.3332 20.3589C12.2477 20.4691 12.1715 20.5863 12.1056 20.7092C12.0313 20.8476 11.9744 20.9954 11.8606 21.2912L10.082 25.9156ZM10.082 25.9156L11.7971 21.4564C11.9199 21.1373 11.9812 20.9778 12.0865 20.9047C12.1785 20.8408 12.2923 20.8167 12.4023 20.8377C12.5281 20.8617 12.649 20.9826 12.8908 21.2243L14.7733 23.1069C15.0151 23.3487 15.136 23.4695 15.16 23.5954C15.181 23.7054 15.1569 23.8192 15.093 23.9112C15.0199 24.0164 14.8604 24.0778 14.5413 24.2005L10.082 25.9156Z" stroke="black" stroke-width="1.5" stroke-linecap="round" stroke-linejoin="round"/>
<rect x="0.5" y="0.5" width="35" height="35" rx="17.5" stroke="#EDEFF1"/>
</svg>
