<svg width="16" height="11" viewBox="0 0 16 11" fill="none" xmlns="http://www.w3.org/2000/svg">
<path d="M1.61342 5.97415C1.52262 5.83039 1.47723 5.75851 1.45182 5.64764C1.43273 5.56436 1.43273 5.43303 1.45182 5.34975C1.47723 5.23889 1.52262 5.16701 1.61341 5.02325C2.36369 3.83526 4.59693 0.832031 8.00027 0.832031C11.4036 0.832031 13.6369 3.83526 14.3871 5.02325C14.4779 5.16701 14.5233 5.23889 14.5487 5.34975C14.5678 5.43303 14.5678 5.56436 14.5487 5.64764C14.5233 5.75851 14.4779 5.83039 14.3871 5.97415C13.6369 7.16214 11.4036 10.1654 8.00027 10.1654C4.59693 10.1654 2.36369 7.16214 1.61342 5.97415Z" stroke="black" stroke-width="1.5" stroke-linecap="round" stroke-linejoin="round"/>
<path d="M8.00027 7.4987C9.10484 7.4987 10.0003 6.60327 10.0003 5.4987C10.0003 4.39413 9.10484 3.4987 8.00027 3.4987C6.8957 3.4987 6.00027 4.39413 6.00027 5.4987C6.00027 6.60327 6.8957 7.4987 8.00027 7.4987Z" stroke="black" stroke-width="1.5" stroke-linecap="round" stroke-linejoin="round"/>
</svg>
