<svg width="71" height="71" viewBox="0 0 71 71" fill="none" xmlns="http://www.w3.org/2000/svg">
<rect x="3" y="3" width="65" height="65" rx="28" fill="#F2F4F7"/>
<path d="M22.3434 30.4086C21.9435 30.1229 21.7435 29.9801 21.5692 29.9616C21.3085 29.9338 21.0472 30.0683 20.9183 30.2966C20.832 30.4492 20.832 30.6922 20.832 31.1782V39.8217C20.832 40.895 20.832 41.7808 20.891 42.5024C20.9522 43.2519 21.0836 43.9408 21.4133 44.588C21.9247 45.5915 22.7406 46.4074 23.7441 46.9187C24.3912 47.2484 25.0801 47.3798 25.8296 47.4411C26.5512 47.5 27.437 47.5 28.5103 47.5H42.4871C43.5604 47.5 44.4462 47.5 45.1678 47.4411C45.9173 47.3798 46.6062 47.2484 47.2533 46.9187C48.2568 46.4074 49.0727 45.5915 49.5841 44.588C49.9138 43.9408 50.0452 43.2519 50.1064 42.5024C50.1654 41.7809 50.1654 40.895 50.1654 39.8218V31.1782C50.1654 30.94 50.1654 30.8209 50.1435 30.7377C50.0449 30.3617 49.6361 30.1475 49.2708 30.2804C49.1899 30.3098 49.0908 30.3785 48.8924 30.5158L38.5696 37.6626C37.8377 38.1709 37.195 38.6172 36.465 38.7941C35.8264 38.9489 35.1595 38.944 34.5233 38.7799C33.7959 38.5922 33.1599 38.1365 32.4356 37.6175L22.3434 30.4086Z" fill="#0087F4"/>
<path d="M49.0091 27.1916C49.2552 27.0212 49.3783 26.936 49.4539 26.799C49.5126 26.6926 49.5462 26.5241 49.5327 26.4033C49.5154 26.2477 49.4493 26.145 49.3171 25.9396C48.8106 25.1529 48.0817 24.5034 47.2533 24.0813C46.6062 23.7516 45.9173 23.6202 45.1678 23.5589C44.4462 23.5 43.5604 23.5 42.4871 23.5H28.5103C27.437 23.5 26.5512 23.5 25.8296 23.5589C25.0801 23.6202 24.3912 23.7516 23.7441 24.0813C22.9987 24.4611 22.3544 25.0101 21.8645 25.6778C21.7104 25.8879 21.6333 25.9929 21.6079 26.1523C21.5881 26.2769 21.6158 26.4501 21.6736 26.5623C21.7475 26.7058 21.8756 26.7974 22.1319 26.9804L33.8321 35.3377C34.8017 36.0303 35.0075 36.1508 35.1896 36.1978C35.4016 36.2525 35.6239 36.2541 35.8368 36.2025C36.0195 36.1582 36.227 36.0408 37.2067 35.3625L49.0091 27.1916Z" fill="#0087F4"/>
<rect x="3" y="3" width="65" height="65" rx="28" stroke="#F9FAFB" stroke-width="6"/>
</svg>
