<svg width="56" height="57" viewBox="0 0 56 57" fill="none" xmlns="http://www.w3.org/2000/svg">
<rect x="3" y="3.5" width="50" height="50" rx="25" fill="#F2F4F7"/>
<path fill-rule="evenodd" clip-rule="evenodd" d="M17 22C17 20.3431 18.3431 19 20 19H36C37.6569 19 39 20.3431 39 22C39 23.6569 37.6569 25 36 25H20C18.3431 25 17 23.6569 17 22Z" fill="#0087F4"/>
<path fill-rule="evenodd" clip-rule="evenodd" d="M20 27C19.4477 27 19 27.4477 19 28V33.2413C19 34.0463 19 34.7106 19.0442 35.2518C19.0901 35.8139 19.1887 36.3306 19.436 36.816C19.8195 37.5686 20.4314 38.1805 21.184 38.564C21.6694 38.8113 22.1861 38.9099 22.7482 38.9558C23.2894 39 23.9537 39 24.7587 39H31.2413C32.0463 39 32.7106 39 33.2518 38.9558C33.8139 38.9099 34.3306 38.8113 34.816 38.564C35.5686 38.1805 36.1805 37.5686 36.564 36.816C36.8113 36.3306 36.9099 35.8139 36.9558 35.2518C37 34.7106 37 34.0463 37 33.2413V28C37 27.4477 36.5523 27 36 27H20ZM26 30C25.4477 30 25 30.4477 25 31C25 31.5523 25.4477 32 26 32H30C30.5523 32 31 31.5523 31 31C31 30.4477 30.5523 30 30 30H26Z" fill="#0087F4"/>
<rect x="3" y="3.5" width="50" height="50" rx="25" stroke="#F9FAFB" stroke-width="6"/>
</svg>
