<svg width="46" height="46" viewBox="0 0 46 46" fill="none" xmlns="http://www.w3.org/2000/svg">
<rect x="3" y="3" width="40" height="40" rx="20" fill="#F2F4F7"/>
<path fill-rule="evenodd" clip-rule="evenodd" d="M25.7011 13.832H20.2989C19.6281 13.832 19.0745 13.832 18.6235 13.8689C18.1551 13.9071 17.7245 13.9893 17.32 14.1953C16.6928 14.5149 16.1829 15.0249 15.8633 15.6521C15.6572 16.0565 15.5751 16.4871 15.5368 16.9555C15.5 17.4065 15.5 17.9601 15.5 18.6309V27.3665C15.5 28.0373 15.5 28.5909 15.5368 29.0419C15.5751 29.5103 15.6572 29.9409 15.8633 30.3453C16.1829 30.9725 16.6928 31.4825 17.32 31.8021C17.7245 32.0081 18.1551 32.0903 18.6235 32.1285C19.0745 32.1654 19.6281 32.1654 20.2989 32.1654H22.6944C23.285 32.1654 23.5802 32.1654 23.6902 32.0847C23.8021 32.0027 23.8456 31.9262 23.8587 31.788C23.8715 31.6523 23.6962 31.3584 23.3454 30.7707C22.8614 29.9598 22.5833 29.0117 22.5833 27.9987C22.5833 25.0072 25.0085 22.582 28 22.582C28.5132 22.582 29.0098 22.6534 29.4803 22.7868C29.8826 22.9008 30.0837 22.9578 30.1976 22.9253C30.3088 22.8936 30.3768 22.8422 30.4377 22.7439C30.5 22.6431 30.5 22.4597 30.5 22.093V18.6309C30.5 17.9601 30.5 17.4065 30.4632 16.9555C30.4249 16.4871 30.3428 16.0565 30.1367 15.6521C29.8171 15.0249 29.3072 14.5149 28.68 14.1953C28.2755 13.9893 27.8449 13.9071 27.3765 13.8689C26.9255 13.832 26.3719 13.832 25.7011 13.832ZM18.8333 17.1654C18.3731 17.1654 18 17.5385 18 17.9987C18 18.4589 18.3731 18.832 18.8333 18.832H26.3333C26.7936 18.832 27.1667 18.4589 27.1667 17.9987C27.1667 17.5385 26.7936 17.1654 26.3333 17.1654H18.8333ZM18 21.332C18 20.8718 18.3731 20.4987 18.8333 20.4987H23.8333C24.2936 20.4987 24.6667 20.8718 24.6667 21.332C24.6667 21.7923 24.2936 22.1654 23.8333 22.1654H18.8333C18.3731 22.1654 18 21.7923 18 21.332ZM18 24.6654C18 24.2051 18.3731 23.832 18.8333 23.832H20.5C20.9602 23.832 21.3333 24.2051 21.3333 24.6654C21.3333 25.1256 20.9602 25.4987 20.5 25.4987H18.8333C18.3731 25.4987 18 25.1256 18 24.6654Z" fill="#0087F4"/>
<path fill-rule="evenodd" clip-rule="evenodd" d="M24.25 27.9987C24.25 25.9276 25.9289 24.2487 28 24.2487C30.0711 24.2487 31.75 25.9276 31.75 27.9987C31.75 28.7325 31.5392 29.417 31.175 29.9951L31.9226 30.7428C32.248 31.0682 32.248 31.5959 31.9226 31.9213C31.5972 32.2467 31.0695 32.2467 30.7441 31.9213L29.9964 31.1737C29.4183 31.5379 28.7338 31.7487 28 31.7487C25.9289 31.7487 24.25 30.0698 24.25 27.9987ZM28 25.9154C26.8494 25.9154 25.9167 26.8481 25.9167 27.9987C25.9167 29.1493 26.8494 30.082 28 30.082C29.1506 30.082 30.0833 29.1493 30.0833 27.9987C30.0833 26.8481 29.1506 25.9154 28 25.9154Z" fill="#0087F4"/>
<rect x="3" y="3" width="40" height="40" rx="20" stroke="#F9FAFB" stroke-width="6"/>
</svg>
