<svg width="14" height="15" viewBox="0 0 14 15" fill="none" xmlns="http://www.w3.org/2000/svg">
<path fill-rule="evenodd" clip-rule="evenodd" d="M8.89076 1.08203H5.10924C4.63969 1.08202 4.25213 1.08202 3.93644 1.10781C3.60855 1.1346 3.30714 1.1921 3.02402 1.33635C2.58498 1.56005 2.22802 1.91701 2.00432 2.35605C1.86007 2.63917 1.80257 2.94058 1.77578 3.26847C1.74999 3.58416 1.74999 3.97171 1.75 4.44127V10.5561C1.74999 11.0257 1.74999 11.4132 1.77578 11.7289C1.80257 12.0568 1.86007 12.3582 2.00432 12.6413C2.22802 13.0804 2.58498 13.4373 3.02402 13.661C3.30714 13.8053 3.60855 13.8628 3.93644 13.8896C4.25213 13.9154 4.63967 13.9154 5.10923 13.9154H6.7861C7.19948 13.9154 7.40617 13.9154 7.48316 13.8589C7.5615 13.8015 7.59189 13.748 7.60107 13.6512C7.61008 13.5562 7.48731 13.3505 7.24178 12.9391C6.90299 12.3714 6.70833 11.7078 6.70833 10.9987C6.70833 8.90462 8.40592 7.20703 10.5 7.20703C10.8593 7.20703 11.2069 7.257 11.5362 7.35036C11.8178 7.43018 11.9586 7.47009 12.0383 7.44734C12.1161 7.42514 12.1638 7.38913 12.2064 7.32033C12.25 7.2498 12.25 7.12143 12.25 6.86468V4.44126C12.25 3.9717 12.25 3.58416 12.2242 3.26847C12.1974 2.94058 12.1399 2.63917 11.9957 2.35605C11.772 1.91701 11.415 1.56005 10.976 1.33635C10.6929 1.1921 10.3915 1.1346 10.0636 1.10781C9.74787 1.08202 9.36032 1.08202 8.89076 1.08203ZM4.08333 3.41536C3.76117 3.41536 3.5 3.67653 3.5 3.9987C3.5 4.32086 3.76117 4.58203 4.08333 4.58203H9.33333C9.6555 4.58203 9.91667 4.32086 9.91667 3.9987C9.91667 3.67653 9.6555 3.41536 9.33333 3.41536H4.08333ZM3.5 6.33203C3.5 6.00987 3.76117 5.7487 4.08333 5.7487H7.58333C7.9055 5.7487 8.16667 6.00987 8.16667 6.33203C8.16667 6.6542 7.9055 6.91537 7.58333 6.91537H4.08333C3.76117 6.91537 3.5 6.6542 3.5 6.33203ZM3.5 8.66537C3.5 8.3432 3.76117 8.08203 4.08333 8.08203H5.25C5.57217 8.08203 5.83333 8.3432 5.83333 8.66537C5.83333 8.98753 5.57217 9.2487 5.25 9.2487H4.08333C3.76117 9.2487 3.5 8.98753 3.5 8.66537Z" fill="#8D8D8D"/>
<path fill-rule="evenodd" clip-rule="evenodd" d="M7.875 10.9987C7.875 9.54895 9.05025 8.3737 10.5 8.3737C11.9497 8.3737 13.125 9.54895 13.125 10.9987C13.125 11.5123 12.9775 11.9915 12.7225 12.3962L13.2458 12.9196C13.4736 13.1474 13.4736 13.5167 13.2458 13.7445C13.018 13.9723 12.6487 13.9723 12.4209 13.7445L11.8975 13.2212C11.4928 13.4762 11.0136 13.6237 10.5 13.6237C9.05025 13.6237 7.875 12.4484 7.875 10.9987ZM10.5 9.54037C9.69458 9.54037 9.04167 10.1933 9.04167 10.9987C9.04167 11.8041 9.69458 12.457 10.5 12.457C11.3054 12.457 11.9583 11.8041 11.9583 10.9987C11.9583 10.1933 11.3054 9.54037 10.5 9.54037Z" fill="#8D8D8D"/>
</svg>
