<svg width="13" height="14" viewBox="0 0 13 14" fill="none" xmlns="http://www.w3.org/2000/svg">
<path fill-rule="evenodd" clip-rule="evenodd" d="M7.89076 0.582031H4.10924C3.63969 0.582025 3.25213 0.582019 2.93644 0.607812C2.60855 0.634602 2.30714 0.692097 2.02402 0.83635C1.58498 1.06005 1.22802 1.41701 1.00432 1.85605C0.860066 2.13917 0.80257 2.44058 0.775781 2.76847C0.749987 3.08416 0.749993 3.47171 0.75 3.94127V10.0561C0.749993 10.5257 0.749987 10.9132 0.775781 11.2289C0.80257 11.5568 0.860066 11.8582 1.00432 12.1413C1.22802 12.5804 1.58498 12.9373 2.02402 13.161C2.30714 13.3053 2.60855 13.3628 2.93644 13.3896C3.25213 13.4154 3.63967 13.4154 4.10923 13.4154H5.7861C6.19948 13.4154 6.40617 13.4154 6.48316 13.3589C6.5615 13.3015 6.59189 13.248 6.60107 13.1512C6.61008 13.0562 6.48731 12.8505 6.24178 12.4391C5.90299 11.8714 5.70833 11.2078 5.70833 10.4987C5.70833 8.40462 7.40592 6.70703 9.5 6.70703C9.85927 6.70703 10.2069 6.757 10.5362 6.85036C10.8178 6.93018 10.9586 6.97009 11.0383 6.94734C11.1161 6.92514 11.1638 6.88913 11.2064 6.82033C11.25 6.7498 11.25 6.62143 11.25 6.36468V3.94126C11.25 3.4717 11.25 3.08416 11.2242 2.76847C11.1974 2.44058 11.1399 2.13917 10.9957 1.85605C10.772 1.41701 10.415 1.06005 9.97598 0.83635C9.69287 0.692097 9.39146 0.634602 9.06357 0.607812C8.74787 0.582019 8.36032 0.582025 7.89076 0.582031ZM3.08333 2.91536C2.76117 2.91536 2.5 3.17653 2.5 3.4987C2.5 3.82086 2.76117 4.08203 3.08333 4.08203H8.33333C8.6555 4.08203 8.91667 3.82086 8.91667 3.4987C8.91667 3.17653 8.6555 2.91536 8.33333 2.91536H3.08333ZM2.5 5.83203C2.5 5.50987 2.76117 5.2487 3.08333 5.2487H6.58333C6.9055 5.2487 7.16667 5.50987 7.16667 5.83203C7.16667 6.1542 6.9055 6.41537 6.58333 6.41537H3.08333C2.76117 6.41537 2.5 6.1542 2.5 5.83203ZM2.5 8.16537C2.5 7.8432 2.76117 7.58203 3.08333 7.58203H4.25C4.57217 7.58203 4.83333 7.8432 4.83333 8.16537C4.83333 8.48753 4.57217 8.7487 4.25 8.7487H3.08333C2.76117 8.7487 2.5 8.48753 2.5 8.16537Z" fill="black"/>
<path fill-rule="evenodd" clip-rule="evenodd" d="M6.875 10.4987C6.875 9.04895 8.05025 7.8737 9.5 7.8737C10.9497 7.8737 12.125 9.04895 12.125 10.4987C12.125 11.0123 11.9775 11.4915 11.7225 11.8962L12.2458 12.4196C12.4736 12.6474 12.4736 13.0167 12.2458 13.2445C12.018 13.4723 11.6487 13.4723 11.4209 13.2445L10.8975 12.7212C10.4928 12.9762 10.0136 13.1237 9.5 13.1237C8.05025 13.1237 6.875 11.9484 6.875 10.4987ZM9.5 9.04037C8.69458 9.04037 8.04167 9.69328 8.04167 10.4987C8.04167 11.3041 8.69458 11.957 9.5 11.957C10.3054 11.957 10.9583 11.3041 10.9583 10.4987C10.9583 9.69328 10.3054 9.04037 9.5 9.04037Z" fill="black"/>
</svg>
