<svg width="20" height="18" viewBox="0 0 20 18" fill="none" xmlns="http://www.w3.org/2000/svg">
<path d="M1.66797 2.83333C1.66797 2.36662 1.66797 2.13327 1.7588 1.95501C1.83869 1.79821 1.96617 1.67072 2.12298 1.59083C2.30124 1.5 2.53459 1.5 3.0013 1.5H17.0013C17.468 1.5 17.7014 1.5 17.8796 1.59083C18.0364 1.67072 18.1639 1.79821 18.2438 1.95501C18.3346 2.13327 18.3346 2.36662 18.3346 2.83333V3.39116C18.3346 3.61516 18.3346 3.72716 18.3073 3.8313C18.283 3.92359 18.2431 4.01103 18.1892 4.0898C18.1285 4.17869 18.0438 4.25204 17.8745 4.39875L12.5447 9.01792C12.3755 9.16462 12.2908 9.23797 12.23 9.32687C12.1762 9.40564 12.1363 9.49308 12.112 9.58536C12.0846 9.68951 12.0846 9.80151 12.0846 10.0255V14.382C12.0846 14.5449 12.0846 14.6264 12.0584 14.6969C12.0351 14.7591 11.9974 14.8149 11.9482 14.8596C11.8925 14.9102 11.8169 14.9404 11.6656 15.001L8.83223 16.1343C8.52594 16.2568 8.3728 16.3181 8.24986 16.2925C8.14236 16.2702 8.04801 16.2063 7.98735 16.1148C7.91797 16.0101 7.91797 15.8452 7.91797 15.5153V10.0255C7.91797 9.80151 7.91797 9.68951 7.8906 9.58536C7.86634 9.49308 7.82642 9.40564 7.77256 9.32687C7.71179 9.23797 7.62715 9.16462 7.45788 9.01792L2.12806 4.39875C1.95879 4.25204 1.87415 4.17869 1.81338 4.0898C1.75952 4.01103 1.7196 3.92359 1.69534 3.8313C1.66797 3.72716 1.66797 3.61516 1.66797 3.39116V2.83333Z" stroke="#0E181C" stroke-width="1.66667" stroke-linecap="round" stroke-linejoin="round"/>
</svg>
