<svg width="20" height="20" viewBox="0 0 20 20" fill="none" xmlns="http://www.w3.org/2000/svg">
<g clip-path="url(#clip0_3764_45670)">
<path d="M1.66602 10.0013H18.3327M1.66602 10.0013C1.66602 14.6037 5.39698 18.3346 9.99935 18.3346M1.66602 10.0013C1.66602 5.39893 5.39698 1.66797 9.99935 1.66797M18.3327 10.0013C18.3327 14.6037 14.6017 18.3346 9.99935 18.3346M18.3327 10.0013C18.3327 5.39893 14.6017 1.66797 9.99935 1.66797M9.99935 1.66797C12.0837 3.94993 13.2683 6.91133 13.3327 10.0013C13.2683 13.0913 12.0837 16.0527 9.99935 18.3346M9.99935 1.66797C7.91495 3.94993 6.73039 6.91133 6.66602 10.0013C6.73039 13.0913 7.91495 16.0527 9.99935 18.3346" stroke="#000000" stroke-width="1.5" stroke-linecap="round" stroke-linejoin="round"/>
</g>
<defs>
<clipPath id="clip0_3764_45670">
<rect width="20" height="20" fill="white"/>
</clipPath>
</defs>
</svg>
