<svg width="20" height="20" viewBox="0 0 20 20" fill="none" xmlns="http://www.w3.org/2000/svg">
<path d="M6.66797 11.668C6.66797 11.668 7.91797 13.3346 10.0013 13.3346C12.0846 13.3346 13.3346 11.668 13.3346 11.668M12.5013 7.5013H12.5096M7.5013 7.5013H7.50964M18.3346 10.0013C18.3346 14.6037 14.6037 18.3346 10.0013 18.3346C5.39893 18.3346 1.66797 14.6037 1.66797 10.0013C1.66797 5.39893 5.39893 1.66797 10.0013 1.66797C14.6037 1.66797 18.3346 5.39893 18.3346 10.0013ZM12.918 7.5013C12.918 7.73142 12.7314 7.91797 12.5013 7.91797C12.2712 7.91797 12.0846 7.73142 12.0846 7.5013C12.0846 7.27118 12.2712 7.08464 12.5013 7.08464C12.7314 7.08464 12.918 7.27118 12.918 7.5013ZM7.91797 7.5013C7.91797 7.73142 7.73142 7.91797 7.5013 7.91797C7.27118 7.91797 7.08464 7.73142 7.08464 7.5013C7.08464 7.27118 7.27118 7.08464 7.5013 7.08464C7.73142 7.08464 7.91797 7.27118 7.91797 7.5013Z" stroke="#23F81F" stroke-width="1.66667" stroke-linecap="round" stroke-linejoin="round"/>
</svg>
