<svg width="16" height="17" viewBox="0 0 16 17" fill="none" xmlns="http://www.w3.org/2000/svg">
<path d="M6.0587 6.4987C6.21543 6.05314 6.5248 5.67744 6.932 5.43812C7.3392 5.1988 7.81796 5.11132 8.28348 5.19117C8.749 5.27102 9.17124 5.51305 9.47542 5.87438C9.77959 6.23572 9.94607 6.69305 9.94536 7.16536C9.94536 8.4987 7.94536 9.16536 7.94536 9.16536M7.9987 11.832H8.00536M14.6654 8.4987C14.6654 12.1806 11.6806 15.1654 7.9987 15.1654C4.3168 15.1654 1.33203 12.1806 1.33203 8.4987C1.33203 4.8168 4.3168 1.83203 7.9987 1.83203C11.6806 1.83203 14.6654 4.8168 14.6654 8.4987Z" stroke="#8D8D8D" stroke-width="1.5" stroke-linecap="round" stroke-linejoin="round"/>
</svg>
