<svg width="20" height="20" viewBox="0 0 20 20" fill="none" xmlns="http://www.w3.org/2000/svg">
<path d="M9.99479 13.8993V11.7852" stroke="white" stroke-width="1.5" stroke-linecap="round" stroke-linejoin="round"/>
<path fill-rule="evenodd" clip-rule="evenodd" d="M15.1577 4.44141C16.566 4.44141 17.6993 5.58307 17.6993 6.99141V9.85807C15.6493 11.0581 12.941 11.7831 9.99102 11.7831C7.04102 11.7831 4.34102 11.0581 2.29102 9.85807V6.98307C2.29102 5.57474 3.43268 4.44141 4.84102 4.44141H15.1577Z" stroke="white" stroke-width="1.5" stroke-linecap="round" stroke-linejoin="round"/>
<path d="M12.9115 4.43964V4.13464C12.9115 3.11797 12.0865 2.29297 11.0698 2.29297H8.91979C7.90313 2.29297 7.07812 3.11797 7.07812 4.13464V4.43964" stroke="white" stroke-width="1.5" stroke-linecap="round" stroke-linejoin="round"/>
<path d="M2.31055 12.9023L2.46805 14.9932C2.57471 16.4023 3.74888 17.4915 5.16138 17.4915H14.8272C16.2397 17.4915 17.4139 16.4023 17.5205 14.9932L17.678 12.9023" stroke="white" stroke-width="1.5" stroke-linecap="round" stroke-linejoin="round"/>
</svg>
