<svg width="12" height="10" viewBox="0 0 12 10" fill="none" xmlns="http://www.w3.org/2000/svg">
<path d="M11.25 5.0013L4.25 5.0013M11.25 1.5013L4.25 1.5013M11.25 8.5013L4.25 8.5013M1.91667 5.0013C1.91667 5.32347 1.6555 5.58464 1.33333 5.58464C1.01117 5.58464 0.75 5.32347 0.75 5.0013C0.75 4.67914 1.01117 4.41797 1.33333 4.41797C1.6555 4.41797 1.91667 4.67914 1.91667 5.0013ZM1.91667 1.5013C1.91667 1.82347 1.6555 2.08464 1.33333 2.08464C1.01117 2.08464 0.75 1.82347 0.75 1.5013C0.75 1.17914 1.01117 0.917969 1.33333 0.917969C1.6555 0.917969 1.91667 1.17914 1.91667 1.5013ZM1.91667 8.5013C1.91667 8.82347 1.6555 9.08464 1.33333 9.08464C1.01117 9.08464 0.75 8.82347 0.75 8.5013C0.75 8.17914 1.01117 7.91797 1.33333 7.91797C1.6555 7.91797 1.91667 8.17914 1.91667 8.5013Z" stroke="black" stroke-linecap="round" stroke-linejoin="round"/>
</svg>
