<svg width="24" height="24" viewBox="0 0 24 24" fill="none" xmlns="http://www.w3.org/2000/svg">
<rect x="0.5" y="0.5" width="23" height="23" rx="11.5" fill="white"/>
<path d="M17.25 11.9993L10.25 11.9993M17.25 8.49935L10.25 8.49935M17.25 15.4993L10.25 15.4993M7.91667 11.9993C7.91667 12.3215 7.6555 12.5827 7.33333 12.5827C7.01117 12.5827 6.75 12.3215 6.75 11.9993C6.75 11.6772 7.01117 11.416 7.33333 11.416C7.6555 11.416 7.91667 11.6772 7.91667 11.9993ZM7.91667 8.49935C7.91667 8.82152 7.6555 9.08268 7.33333 9.08268C7.01117 9.08268 6.75 8.82152 6.75 8.49935C6.75 8.17718 7.01117 7.91602 7.33333 7.91602C7.6555 7.91602 7.91667 8.17718 7.91667 8.49935ZM7.91667 15.4993C7.91667 15.8215 7.6555 16.0827 7.33333 16.0827C7.01117 16.0827 6.75 15.8215 6.75 15.4993C6.75 15.1772 7.01117 14.916 7.33333 14.916C7.6555 14.916 7.91667 15.1772 7.91667 15.4993Z" stroke="black" stroke-linecap="round" stroke-linejoin="round"/>
<rect x="0.5" y="0.5" width="23" height="23" rx="11.5" stroke="white"/>
</svg>
