<svg width="40" height="40" viewBox="0 0 40 40" fill="none" xmlns="http://www.w3.org/2000/svg">
<rect width="40" height="40" rx="20" fill="#EDECEA"/>
<path d="M26 20.0007L18 20.0007M26 16.0007L18 16.0007M26 24.0007L18 24.0007M15.3333 20.0007C15.3333 20.3688 15.0349 20.6673 14.6667 20.6673C14.2985 20.6673 14 20.3688 14 20.0007C14 19.6325 14.2985 19.334 14.6667 19.334C15.0349 19.334 15.3333 19.6325 15.3333 20.0007ZM15.3333 16.0007C15.3333 16.3688 15.0349 16.6673 14.6667 16.6673C14.2985 16.6673 14 16.3688 14 16.0007C14 15.6325 14.2985 15.334 14.6667 15.334C15.0349 15.334 15.3333 15.6325 15.3333 16.0007ZM15.3333 24.0007C15.3333 24.3688 15.0349 24.6673 14.6667 24.6673C14.2985 24.6673 14 24.3688 14 24.0007C14 23.6325 14.2985 23.334 14.6667 23.334C15.0349 23.334 15.3333 23.6325 15.3333 24.0007Z" stroke="#050505" stroke-width="1.5" stroke-linecap="round" stroke-linejoin="round"/>
</svg>
