<svg width="116" height="27" viewBox="0 0 116 27" fill="none" xmlns="http://www.w3.org/2000/svg">
<g clip-path="url(#clip0_11_48198)">
<mask id="mask0_11_48198" style="mask-type:alpha" maskUnits="userSpaceOnUse" x="0" y="0" width="33" height="27">
<path d="M0 0.297368C0 0.256105 0.0334503 0.222656 0.0747133 0.222656H18.7859C26.1445 0.222656 32.1099 6.18798 32.1099 13.5466C32.1099 20.9052 26.1445 26.8705 18.7859 26.8705H0.0373995C0.0167439 26.8705 0 26.8538 0 26.8331V0.297368Z" fill="#FF6833"/>
</mask>
<g mask="url(#mask0_11_48198)">
<path d="M0 1.3945C0 0.91696 0 0.67819 0.117422 0.508294C0.162878 0.442526 0.219869 0.385534 0.285638 0.340079C0.455534 0.222656 0.694304 0.222656 1.17184 0.222656H18.7859C26.1445 0.222656 32.1099 6.18798 32.1099 13.5466C32.1099 20.9052 26.1445 26.8705 18.7859 26.8705H1.17184C0.694304 26.8705 0.455534 26.8705 0.285638 26.7531C0.219869 26.7077 0.162878 26.6507 0.117422 26.5849C0 26.415 0 26.1762 0 25.6987V1.3945Z" fill="#726DFF"/>
<path d="M20.8202 12.4934C21.5594 12.9138 21.929 13.1241 21.9842 13.4286C21.9983 13.5066 21.9983 13.5865 21.9842 13.6645C21.929 13.969 21.5594 14.1793 20.8202 14.5997L11.2412 20.0477C10.5163 20.46 10.1539 20.6662 9.86613 20.5613C9.79234 20.5345 9.72391 20.4947 9.66406 20.4438C9.43069 20.2455 9.43069 19.8285 9.43069 18.9946L9.43069 8.09852C9.43069 7.26456 9.43069 6.84758 9.66406 6.64929C9.72392 6.59844 9.79234 6.55864 9.86613 6.53175C10.1539 6.42693 10.5163 6.63308 11.2412 7.04537L20.8202 12.4934Z" fill="white"/>
</g>
<path d="M56.0476 13.5348C56.0476 15.0408 55.7966 16.4237 55.2946 17.6835C54.7926 18.9433 54.0869 20.0278 53.1776 20.9371C52.2683 21.8464 51.1743 22.5521 49.8956 23.0541C48.6169 23.5561 47.1961 23.8071 45.6332 23.8071H37.8047V3.26248H45.6332C47.1961 3.26248 48.6169 3.51822 49.8956 4.02971C51.1743 4.53172 52.2683 5.23738 53.1776 6.14669C54.0869 7.04652 54.7926 8.12632 55.2946 9.38609C55.7966 10.6459 56.0476 12.0288 56.0476 13.5348ZM52.1263 13.5348C52.1263 12.4076 51.9747 11.3989 51.6716 10.5085C51.378 9.60868 50.947 8.85092 50.3787 8.23525C49.8198 7.6101 49.1379 7.13177 48.3327 6.80025C47.5371 6.46873 46.6373 6.30297 45.6332 6.30297H41.6408V20.7666H45.6332C46.6373 20.7666 47.5371 20.6009 48.3327 20.2693C49.1379 19.9378 49.8198 19.4642 50.3787 18.8486C50.947 18.2234 51.378 17.4657 51.6716 16.5753C51.9747 15.6755 52.1263 14.662 52.1263 13.5348Z" fill="#050505"/>
<path d="M79.0145 13.5348C79.0145 15.0408 78.7635 16.4379 78.2615 17.7261C77.7689 19.0048 77.068 20.1131 76.1587 21.0508C75.2494 21.9885 74.1554 22.7226 72.8767 23.253C71.598 23.774 70.1772 24.0344 68.6143 24.0344C67.0609 24.0344 65.6449 23.774 64.3661 23.253C63.0874 22.7226 61.9887 21.9885 61.0699 21.0508C60.1606 20.1131 59.4549 19.0048 58.9529 17.7261C58.4509 16.4379 58.1999 15.0408 58.1999 13.5348C58.1999 12.0288 58.4509 10.6364 58.9529 9.35767C59.4549 8.06949 60.1606 6.95654 61.0699 6.01882C61.9887 5.08109 63.0874 4.35175 64.3661 3.8308C65.6449 3.30037 67.0609 3.03516 68.6143 3.03516C69.6562 3.03516 70.6366 3.15829 71.5553 3.40456C72.4741 3.64136 73.3171 3.98235 74.0844 4.42753C74.8516 4.86324 75.5383 5.3984 76.1445 6.03302C76.7602 6.65817 77.2811 7.35909 77.7074 8.13579C78.1336 8.91249 78.4556 9.75549 78.6735 10.6648C78.9008 11.5741 79.0145 12.5308 79.0145 13.5348ZM75.1073 13.5348C75.1073 12.4076 74.9558 11.3989 74.6527 10.5085C74.3496 9.60868 73.9186 8.84619 73.3597 8.22104C72.8009 7.59589 72.1189 7.11756 71.3138 6.78604C70.5182 6.45452 69.6183 6.28877 68.6143 6.28877C67.6103 6.28877 66.7057 6.45452 65.9006 6.78604C65.105 7.11756 64.423 7.59589 63.8547 8.22104C63.2958 8.84619 62.8648 9.60868 62.5617 10.5085C62.2586 11.3989 62.1071 12.4076 62.1071 13.5348C62.1071 14.662 62.2586 15.6755 62.5617 16.5753C62.8648 17.4657 63.2958 18.2234 63.8547 18.8486C64.423 19.4642 65.105 19.9378 65.9006 20.2693C66.7057 20.6009 67.6103 20.7666 68.6143 20.7666C69.6183 20.7666 70.5182 20.6009 71.3138 20.2693C72.1189 19.9378 72.8009 19.4642 73.3597 18.8486C73.9186 18.2234 74.3496 17.4657 74.6527 16.5753C74.9558 15.6755 75.1073 14.662 75.1073 13.5348Z" fill="#050505"/>
<path d="M88.5797 13.0375C89.2996 13.0375 89.9248 12.9475 90.4552 12.7676C90.9951 12.5876 91.4355 12.3413 91.7765 12.0288C92.127 11.7067 92.3875 11.3278 92.558 10.8921C92.7285 10.4564 92.8137 9.97809 92.8137 9.45713C92.8137 8.41522 92.468 7.61484 91.7765 7.05599C91.0945 6.49715 90.0479 6.21773 88.6366 6.21773H86.1928V13.0375H88.5797ZM98.4116 23.8071H94.9591C94.3055 23.8071 93.8319 23.5514 93.5383 23.0399L89.2191 16.4616C89.0581 16.2154 88.8781 16.0401 88.6792 15.9359C88.4898 15.8317 88.2056 15.7796 87.8267 15.7796H86.1928V23.8071H82.3709V3.26248H88.6366C90.0289 3.26248 91.2224 3.4093 92.217 3.70293C93.221 3.98708 94.0403 4.38964 94.6749 4.9106C95.319 5.43156 95.7926 6.0567 96.0957 6.78604C96.3988 7.50591 96.5504 8.30155 96.5504 9.17297C96.5504 9.86442 96.4462 10.518 96.2378 11.1337C96.0389 11.7493 95.7453 12.3082 95.3569 12.8102C94.978 13.3122 94.5044 13.7527 93.9361 14.1315C93.3773 14.5104 92.7379 14.8088 92.0181 15.0266C92.2643 15.1687 92.4917 15.3392 92.7 15.5381C92.9084 15.7276 93.0979 15.9549 93.2684 16.2201L98.4116 23.8071Z" fill="#050505"/>
<path d="M108.51 15.8507V23.8071H104.702V15.8507L97.2146 3.26248H100.582C100.913 3.26248 101.174 3.34299 101.363 3.50402C101.562 3.66504 101.728 3.86869 101.861 4.11496L105.611 10.9774C105.829 11.3847 106.019 11.7683 106.18 12.1282C106.35 12.4881 106.502 12.8481 106.634 13.208C106.758 12.8481 106.9 12.4881 107.061 12.1282C107.222 11.7683 107.406 11.3847 107.615 10.9774L111.351 4.11496C111.456 3.90657 111.612 3.7124 111.82 3.53243C112.029 3.35247 112.294 3.26248 112.616 3.26248H115.997L108.51 15.8507Z" fill="#050505"/>
</g>
<defs>
<clipPath id="clip0_11_48198">
<rect width="116" height="26.6479" fill="white" transform="translate(0 0.222656)"/>
</clipPath>
</defs>
</svg>
