<svg width="116" height="32" viewBox="0 0 116 32" fill="none" xmlns="http://www.w3.org/2000/svg">
<g clip-path="url(#clip0_18_28730)">
<mask id="mask0_18_28730" style="mask-type:alpha" maskUnits="userSpaceOnUse" x="0" y="2" width="33" height="28">
<path d="M0 2.75049C0 2.70923 0.0334503 2.67578 0.0747133 2.67578H18.7859C26.1445 2.67578 32.1099 8.64111 32.1099 15.9997V15.9997C32.1099 23.3583 26.1445 29.3237 18.7859 29.3237H0.0373995C0.0167439 29.3237 0 29.3069 0 29.2863V2.75049Z" fill="#FF6833"/>
</mask>
<g mask="url(#mask0_18_28730)">
<path d="M0 3.84762C0 3.37008 0 3.13131 0.117422 2.96142C0.162878 2.89565 0.219869 2.83866 0.285638 2.7932C0.455534 2.67578 0.694304 2.67578 1.17184 2.67578H18.7859C26.1445 2.67578 32.1099 8.64111 32.1099 15.9997V15.9997C32.1099 23.3583 26.1445 29.3237 18.7859 29.3237H1.17184C0.694304 29.3237 0.455534 29.3237 0.285638 29.2062C0.219869 29.1608 0.162878 29.1038 0.117422 29.038C0 28.8681 0 28.6294 0 28.1518V3.84762Z" fill="#726DFF"/>
<path d="M20.8202 14.9465C21.5594 15.367 21.929 15.5772 21.9842 15.8817C21.9983 15.9597 21.9983 16.0396 21.9842 16.1176C21.929 16.4222 21.5594 16.6324 20.8202 17.0528L11.2412 22.5008C10.5163 22.9131 10.1539 23.1193 9.86613 23.0145C9.79234 22.9876 9.72391 22.9478 9.66406 22.8969C9.43069 22.6986 9.43069 22.2817 9.43069 21.4477L9.43069 10.5516C9.43069 9.71769 9.43069 9.30071 9.66406 9.10242C9.72392 9.05156 9.79234 9.01176 9.86613 8.98488C10.1539 8.88006 10.5163 9.0862 11.2412 9.4985L20.8202 14.9465Z" fill="white"/>
</g>
<path d="M56.0476 15.9879C56.0476 17.494 55.7966 18.8769 55.2946 20.1366C54.7926 21.3964 54.0869 22.4809 53.1776 23.3902C52.2683 24.2995 51.1743 25.0052 49.8956 25.5072C48.6169 26.0092 47.1961 26.2602 45.6332 26.2602H37.8047V5.71561H45.6332C47.1961 5.71561 48.6169 5.97135 49.8956 6.48283C51.1743 6.98485 52.2683 7.69051 53.1776 8.59981C54.0869 9.49965 54.7926 10.5794 55.2946 11.8392C55.7966 13.099 56.0476 14.4819 56.0476 15.9879ZM52.1263 15.9879C52.1263 14.8608 51.9747 13.852 51.6716 12.9616C51.378 12.0618 50.947 11.304 50.3787 10.6884C49.8198 10.0632 49.1379 9.58489 48.3327 9.25338C47.5371 8.92186 46.6373 8.7561 45.6332 8.7561H41.6408V23.2197H45.6332C46.6373 23.2197 47.5371 23.054 48.3327 22.7225C49.1379 22.391 49.8198 21.9174 50.3787 21.3017C50.947 20.6765 51.378 19.9188 51.6716 19.0284C51.9747 18.1286 52.1263 17.1151 52.1263 15.9879Z" fill="white"/>
<path d="M79.0145 15.9879C79.0145 17.494 78.7635 18.8911 78.2615 20.1793C77.7689 21.458 77.068 22.5662 76.1587 23.5039C75.2494 24.4416 74.1554 25.1757 72.8767 25.7061C71.598 26.2271 70.1772 26.4876 68.6143 26.4876C67.0609 26.4876 65.6449 26.2271 64.3661 25.7061C63.0874 25.1757 61.9887 24.4416 61.0699 23.5039C60.1606 22.5662 59.4549 21.458 58.9529 20.1793C58.4509 18.8911 58.1999 17.494 58.1999 15.9879C58.1999 14.4819 58.4509 13.0895 58.9529 11.8108C59.4549 10.5226 60.1606 9.40966 61.0699 8.47194C61.9887 7.53422 63.0874 6.80488 64.3661 6.28392C65.6449 5.7535 67.0609 5.48828 68.6143 5.48828C69.6562 5.48828 70.6366 5.61142 71.5553 5.85769C72.4741 6.09448 73.3171 6.43547 74.0844 6.88065C74.8516 7.31636 75.5383 7.85153 76.1445 8.48615C76.7602 9.1113 77.2811 9.81222 77.7074 10.5889C78.1336 11.3656 78.4556 12.2086 78.6735 13.1179C78.9008 14.0272 79.0145 14.9839 79.0145 15.9879ZM75.1073 15.9879C75.1073 14.8608 74.9558 13.852 74.6527 12.9616C74.3496 12.0618 73.9186 11.2993 73.3597 10.6742C72.8009 10.049 72.1189 9.57068 71.3138 9.23917C70.5182 8.90765 69.6183 8.74189 68.6143 8.74189C67.6103 8.74189 66.7057 8.90765 65.9006 9.23917C65.105 9.57068 64.423 10.049 63.8547 10.6742C63.2958 11.2993 62.8648 12.0618 62.5617 12.9616C62.2586 13.852 62.1071 14.8608 62.1071 15.9879C62.1071 17.1151 62.2586 18.1286 62.5617 19.0284C62.8648 19.9188 63.2958 20.6765 63.8547 21.3017C64.423 21.9174 65.105 22.391 65.9006 22.7225C66.7057 23.054 67.6103 23.2197 68.6143 23.2197C69.6183 23.2197 70.5182 23.054 71.3138 22.7225C72.1189 22.391 72.8009 21.9174 73.3597 21.3017C73.9186 20.6765 74.3496 19.9188 74.6527 19.0284C74.9558 18.1286 75.1073 17.1151 75.1073 15.9879Z" fill="white"/>
<path d="M88.5797 15.4906C89.2996 15.4906 89.9248 15.4007 90.4552 15.2207C90.9951 15.0407 91.4355 14.7945 91.7765 14.4819C92.127 14.1598 92.3875 13.781 92.558 13.3453C92.7285 12.9095 92.8137 12.4312 92.8137 11.9103C92.8137 10.8683 92.468 10.068 91.7765 9.50912C91.0945 8.95027 90.0479 8.67085 88.6366 8.67085H86.1928V15.4906H88.5797ZM98.4116 26.2602H94.9591C94.3055 26.2602 93.8319 26.0045 93.5383 25.493L89.2191 18.9148C89.0581 18.6685 88.8781 18.4932 88.6792 18.3891C88.4898 18.2849 88.2056 18.2328 87.8267 18.2328H86.1928V26.2602H82.3709V5.71561H88.6366C90.0289 5.71561 91.2224 5.86242 92.217 6.15605C93.221 6.44021 94.0403 6.84277 94.6749 7.36372C95.319 7.88468 95.7926 8.50983 96.0957 9.23917C96.3988 9.95903 96.5504 10.7547 96.5504 11.6261C96.5504 12.3175 96.4462 12.9711 96.2378 13.5868C96.0389 14.2025 95.7453 14.7613 95.3569 15.2633C94.978 15.7653 94.5044 16.2058 93.9361 16.5847C93.3773 16.9635 92.7379 17.2619 92.0181 17.4798C92.2643 17.6218 92.4917 17.7923 92.7 17.9912C92.9084 18.1807 93.0979 18.408 93.2684 18.6732L98.4116 26.2602Z" fill="white"/>
<path d="M108.51 18.3038V26.2602H104.702V18.3038L97.2146 5.71561H100.582C100.913 5.71561 101.174 5.79612 101.363 5.95714C101.562 6.11816 101.728 6.32181 101.861 6.56808L105.611 13.4305C105.829 13.8378 106.019 14.2214 106.18 14.5813C106.35 14.9413 106.502 15.3012 106.634 15.6611C106.758 15.3012 106.9 14.9413 107.061 14.5813C107.222 14.2214 107.406 13.8378 107.615 13.4305L111.351 6.56808C111.456 6.3597 111.612 6.16552 111.82 5.98556C112.029 5.80559 112.294 5.71561 112.616 5.71561H115.997L108.51 18.3038Z" fill="white"/>
</g>
<defs>
<clipPath id="clip0_18_28730">
<rect width="116" height="26.6479" fill="white" transform="translate(0 2.67578)"/>
</clipPath>
</defs>
</svg>
