<svg width="14" height="15" viewBox="0 0 14 15" fill="none" xmlns="http://www.w3.org/2000/svg">
<path fill-rule="evenodd" clip-rule="evenodd" d="M7.0013 1.66797C3.77964 1.66797 1.16797 4.27964 1.16797 7.5013C1.16797 8.27615 1.31936 9.01709 1.59471 9.6951C1.61958 9.75634 1.63389 9.79169 1.64369 9.8178L1.64667 9.82585L1.6463 9.82863C1.64338 9.85016 1.63856 9.8795 1.62922 9.93552L1.28052 12.0277C1.26487 12.1214 1.24736 12.2262 1.24049 12.3173C1.233 12.4166 1.23039 12.5745 1.30198 12.7414C1.39047 12.9477 1.55489 13.1121 1.76122 13.2006C1.92812 13.2722 2.08605 13.2696 2.18533 13.2621C2.27638 13.2552 2.38122 13.2377 2.47492 13.2221L4.56708 12.8734C4.6231 12.864 4.65245 12.8592 4.67397 12.8563L4.67675 12.8559L4.68481 12.8589C4.71091 12.8687 4.74627 12.883 4.80751 12.9079C5.48551 13.1832 6.22645 13.3346 7.0013 13.3346C10.223 13.3346 12.8346 10.723 12.8346 7.5013C12.8346 4.27964 10.223 1.66797 7.0013 1.66797ZM4.66797 5.45964C4.3458 5.45964 4.08464 5.7208 4.08464 6.04297C4.08464 6.36513 4.3458 6.6263 4.66797 6.6263H7.0013C7.32347 6.6263 7.58464 6.36513 7.58464 6.04297C7.58464 5.7208 7.32347 5.45964 7.0013 5.45964H4.66797ZM4.66797 7.5013C4.3458 7.5013 4.08464 7.76247 4.08464 8.08464C4.08464 8.4068 4.3458 8.66797 4.66797 8.66797H8.7513C9.07347 8.66797 9.33463 8.4068 9.33463 8.08464C9.33463 7.76247 9.07347 7.5013 8.7513 7.5013H4.66797Z" fill="#8D8D8D"/>
</svg>
