<svg width="10" height="14" viewBox="0 0 10 14" fill="none" xmlns="http://www.w3.org/2000/svg">
<path fill-rule="evenodd" clip-rule="evenodd" d="M3.125 1.75C3.125 2.57841 2.45341 3.25 1.625 3.25C0.796587 3.25 0.125 2.57841 0.125 1.75C0.125 0.921572 0.796587 0.25 1.625 0.25C2.45341 0.25 3.125 0.921572 3.125 1.75ZM1.625 8.5C2.45341 8.5 3.125 7.82841 3.125 7C3.125 6.17159 2.45341 5.5 1.625 5.5C0.796587 5.5 0.125 6.17159 0.125 7C0.125 7.82841 0.796587 8.5 1.625 8.5ZM1.625 13.75C2.45341 13.75 3.125 13.0784 3.125 12.25C3.125 11.4216 2.45341 10.75 1.625 10.75C0.796587 10.75 0.125 11.4216 0.125 12.25C0.125 13.0784 0.796587 13.75 1.625 13.75Z" fill="#050505"/>
<path fill-rule="evenodd" clip-rule="evenodd" d="M9.875 1.75C9.875 2.57841 9.20341 3.25 8.375 3.25C7.54659 3.25 6.875 2.57841 6.875 1.75C6.875 0.921572 7.54659 0.25 8.375 0.25C9.20341 0.25 9.875 0.921572 9.875 1.75ZM8.375 8.5C9.20341 8.5 9.875 7.82841 9.875 7C9.875 6.17159 9.20341 5.5 8.375 5.5C7.54659 5.5 6.875 6.17159 6.875 7C6.875 7.82841 7.54659 8.5 8.375 8.5ZM8.375 13.75C9.20341 13.75 9.875 13.0784 9.875 12.25C9.875 11.4216 9.20341 10.75 8.375 10.75C7.54659 10.75 6.875 11.4216 6.875 12.25C6.875 13.0784 7.54659 13.75 8.375 13.75Z" fill="#050505"/>
</svg>
