<svg width="16" height="16" viewBox="0 0 16 16" fill="none" xmlns="http://www.w3.org/2000/svg">
<path fill-rule="evenodd" clip-rule="evenodd" d="M5.73711 13.5601C5.98075 13.2841 6.40204 13.2578 6.67809 13.5015C7.03106 13.813 7.49314 14.0013 8.00082 14.0013C8.5085 14.0013 8.97057 13.813 9.32354 13.5015C9.59959 13.2578 10.0209 13.2841 10.2645 13.5601C10.5082 13.8362 10.4819 14.2575 10.2059 14.5011C9.61865 15.0194 8.84573 15.3346 8.00082 15.3346C7.1559 15.3346 6.38299 15.0194 5.79578 14.5011C5.51973 14.2575 5.49346 13.8362 5.73711 13.5601Z" fill="#9B3F4A"/>
<path fill-rule="evenodd" clip-rule="evenodd" d="M3.4655 1.20702C3.64644 1.52769 3.53316 1.93432 3.2125 2.11525C2.58132 2.47139 2.18955 3.14996 2.19671 3.87464C2.20035 4.24281 1.90484 4.54422 1.53667 4.54786C1.1685 4.5515 0.867083 4.25599 0.863443 3.88782C0.851478 2.67737 1.50302 1.54888 2.55728 0.954017C2.87794 0.773083 3.28457 0.886358 3.4655 1.20702Z" fill="#9B3F4A"/>
<path fill-rule="evenodd" clip-rule="evenodd" d="M12.5335 1.20703C12.7144 0.886361 13.121 0.773086 13.4417 0.95402C14.496 1.54888 15.1475 2.67738 15.1355 3.88782C15.1319 4.256 14.8305 4.55151 14.4623 4.54787C14.0941 4.54423 13.7986 4.24282 13.8023 3.87464C13.8094 3.14996 13.4177 2.47139 12.7865 2.11525C12.4658 1.93432 12.3525 1.52769 12.5335 1.20703Z" fill="#9B3F4A"/>
<path fill-rule="evenodd" clip-rule="evenodd" d="M4.70099 2.0348C5.57616 1.15963 6.76314 0.667969 8.00082 0.667969C9.23849 0.667969 10.4255 1.15963 11.3006 2.0348C12.1758 2.90997 12.6675 4.09696 12.6675 5.33464C12.6675 7.27642 13.1555 8.56387 13.6671 9.38603L13.675 9.39876C13.9132 9.78155 14.1015 10.0842 14.2284 10.3044C14.292 10.4148 14.35 10.5211 14.3929 10.6156C14.4143 10.6628 14.4383 10.7206 14.457 10.7835C14.4725 10.8356 14.5021 10.9471 14.491 11.0828C14.4836 11.174 14.465 11.3299 14.3756 11.4908C14.2861 11.6518 14.1636 11.7499 14.0901 11.8045C13.9233 11.9282 13.7317 11.9565 13.6677 11.966L13.6648 11.9664C13.5665 11.981 13.455 11.9882 13.3425 11.9926C13.119 12.0013 12.8095 12.0013 12.4247 12.0013H3.57692C3.1921 12.0013 2.88267 12.0013 2.65917 11.9926C2.54667 11.9882 2.43515 11.981 2.33687 11.9664L2.33392 11.966C2.26997 11.9565 2.07835 11.9282 1.91149 11.8045C1.83799 11.7499 1.71551 11.6518 1.62608 11.4908C1.53664 11.3299 1.51805 11.174 1.51059 11.0828C1.49949 10.9471 1.52909 10.8356 1.54463 10.7835C1.56335 10.7206 1.58731 10.6628 1.60873 10.6156C1.65164 10.5211 1.7096 10.4148 1.77321 10.3044C1.90016 10.0841 2.08848 9.7815 2.3267 9.39867L2.33456 9.38603C2.84615 8.56387 3.33415 7.27642 3.33415 5.33464C3.33415 4.09696 3.82582 2.90997 4.70099 2.0348Z" fill="#9B3F4A"/>
</svg>
