<svg width="32" height="32" viewBox="0 0 32 32" fill="none" xmlns="http://www.w3.org/2000/svg">
<path d="M23.9989 2.66797C21.0533 2.66797 18.6655 5.05578 18.6655 8.0013C18.6655 10.9468 21.0533 13.3346 23.9989 13.3346C26.9444 13.3346 29.3322 10.9468 29.3322 8.0013C29.3322 5.05578 26.9444 2.66797 23.9989 2.66797Z" fill="#D1D1D1"/>
<path d="M23.6871 15.9417C23.0331 15.6705 22.2981 15.6705 21.6441 15.9417C21.1492 16.1469 20.811 16.5034 20.5671 16.8059C20.3527 17.0717 20.1233 17.4113 19.8774 17.7798L16.1527 12.3996C15.8838 12.0111 15.6332 11.6491 15.4007 11.3707C15.1565 11.0783 14.821 10.7371 14.3364 10.5401C13.6925 10.2783 12.9719 10.2783 12.328 10.5401C11.8434 10.7371 11.5079 11.0783 11.2637 11.3707C11.0312 11.6491 10.7806 12.0111 10.5117 12.3996L2.52054 23.9424C2.17354 24.4436 1.86245 24.8929 1.64707 25.2741C1.43253 25.6538 1.18409 26.1782 1.21329 26.7942C1.25051 27.5796 1.63243 28.3085 2.25698 28.7862C2.7469 29.1609 3.31944 29.2551 3.75377 29.2948C4.18977 29.3347 4.7362 29.3347 5.34572 29.3347L25.3322 29.3347C25.337 29.3347 25.3417 29.3346 25.3465 29.3346L26.7371 29.3346C27.3349 29.3346 27.8725 29.3347 28.3024 29.2953C28.7326 29.2559 29.2969 29.1624 29.783 28.7946C30.4049 28.3242 30.7897 27.6052 30.8361 26.8269C30.8725 26.2184 30.6373 25.697 30.4314 25.3172C30.2257 24.9376 29.9275 24.4904 29.5958 23.9929L25.5205 17.8799C25.2493 17.4731 24.9977 17.0956 24.764 16.8059C24.5201 16.5034 24.1819 16.1469 23.6871 15.9417Z" fill="#D1D1D1"/>
</svg>
