<svg width="14" height="18" viewBox="0 0 14 18" fill="none" xmlns="http://www.w3.org/2000/svg">
<path d="M1.16797 3.1576C1.16797 2.3483 1.16797 1.94365 1.33671 1.72059C1.48371 1.52626 1.7084 1.40601 1.95163 1.39149C2.23083 1.37482 2.56752 1.59928 3.2409 2.0482L12.0039 7.89018C12.5603 8.26112 12.8385 8.44658 12.9354 8.68035C13.0202 8.88473 13.0202 9.11443 12.9354 9.3188C12.8385 9.55257 12.5603 9.73804 12.0039 10.109L3.2409 15.951C2.56752 16.3999 2.23083 16.6243 1.95163 16.6077C1.7084 16.5931 1.48371 16.4729 1.33671 16.2786C1.16797 16.0555 1.16797 15.6509 1.16797 14.8416V3.1576Z" stroke="#344054" stroke-width="1.66667" stroke-linecap="round" stroke-linejoin="round"/>
</svg>
