<svg width="30" height="30" viewBox="0 0 30 30" fill="none" xmlns="http://www.w3.org/2000/svg">
<rect x="1" y="1" width="28" height="28" rx="14" fill="white"/>
<path d="M20.3319 17.0007C20.3319 16.6325 20.0335 16.334 19.6653 16.334C19.2971 16.334 18.9986 16.6325 18.9986 17.0007V18.334H17.6653C17.2971 18.334 16.9986 18.6325 16.9986 19.0007C16.9986 19.3688 17.2971 19.6673 17.6653 19.6673H18.9986V21.0007C18.9986 21.3688 19.2971 21.6673 19.6653 21.6673C20.0335 21.6673 20.3319 21.3688 20.3319 21.0007V19.6673H21.6653C22.0335 19.6673 22.3319 19.3688 22.3319 19.0007C22.3319 18.6325 22.0335 18.334 21.6653 18.334H20.3319V17.0007Z" fill="#B3B3B3"/>
<path fill-rule="evenodd" clip-rule="evenodd" d="M11.5227 16.6673C12.5087 16.6675 13.4947 16.6677 14.4807 16.6673C14.5602 16.6673 14.655 16.6672 14.7385 16.6741C14.8353 16.682 14.974 16.7023 15.1193 16.7763C15.3075 16.8722 15.4604 17.0252 15.5563 17.2133C15.6304 17.3586 15.6507 17.4973 15.6586 17.5941C15.6654 17.6776 15.6654 17.7725 15.6653 17.8519C15.665 18.7288 15.665 19.6058 15.6653 20.4827C15.6654 20.5622 15.6654 20.657 15.6586 20.7405C15.6507 20.8374 15.6304 20.976 15.5563 21.1213C15.4604 21.3095 15.3075 21.4625 15.1193 21.5583C14.974 21.6324 14.8353 21.6527 14.7385 21.6606C14.655 21.6674 14.5602 21.6674 14.4807 21.6673C12.5625 21.6666 10.6439 21.6571 8.72566 21.6674C8.67809 21.6676 8.58245 21.6681 8.49167 21.6521C8.07766 21.5791 7.75351 21.255 7.68051 20.841C7.6645 20.7502 7.66501 20.6546 7.66527 20.607C7.66736 20.213 7.64724 19.8115 7.71596 19.4218C7.9593 18.0418 9.03978 16.9613 10.4198 16.718C10.7081 16.6671 11.0382 16.6672 11.5227 16.6673Z" fill="#B3B3B3"/>
<path fill-rule="evenodd" clip-rule="evenodd" d="M9.99865 12.0007C9.99865 9.97561 11.6403 8.33398 13.6653 8.33398C15.6904 8.33398 17.332 9.97561 17.332 12.0007C17.332 14.0257 15.6904 15.6673 13.6653 15.6673C11.6403 15.6673 9.99865 14.0257 9.99865 12.0007Z" fill="#B3B3B3"/>
<rect x="1" y="1" width="28" height="28" rx="14" stroke="#EAE7E6" stroke-linecap="round" stroke-linejoin="round" stroke-dasharray="1 3"/>
</svg>
