<svg width="16" height="15" viewBox="0 0 16 15" fill="none" xmlns="http://www.w3.org/2000/svg">
<path d="M6.87399 5.75168C7.00613 5.37602 7.26697 5.05925 7.61029 4.85748C7.95361 4.65571 8.35726 4.58195 8.74975 4.64928C9.14224 4.7166 9.49824 4.92065 9.75469 5.2253C10.0111 5.52995 10.1515 5.91554 10.1509 6.31376C10.1509 7.43792 8.46467 8 8.46467 8M8.48641 10.25H8.49391M8.37399 14C11.8948 14 14.749 11.1458 14.749 7.625C14.749 4.10418 11.8948 1.25 8.37399 1.25C4.85317 1.25 1.99899 4.10418 1.99899 7.625C1.99899 8.3375 2.11587 9.02269 2.33151 9.66246C2.41266 9.90321 2.45324 10.0236 2.46056 10.1161C2.46778 10.2074 2.46232 10.2714 2.43973 10.3602C2.41685 10.4501 2.36633 10.5436 2.26531 10.7306L1.03856 13.0013C0.86358 13.3252 0.776088 13.4871 0.79567 13.6121C0.812725 13.7209 0.876797 13.8168 0.970867 13.8742C1.07887 13.9401 1.26196 13.9211 1.62814 13.8833L5.46891 13.4863C5.58522 13.4742 5.64337 13.4682 5.69638 13.4703C5.74852 13.4722 5.78532 13.4771 5.83616 13.4889C5.88785 13.5008 5.95285 13.5258 6.08285 13.5759C6.79389 13.8498 7.5664 14 8.37399 14Z" stroke="black" stroke-width="1.5" stroke-linecap="round" stroke-linejoin="round"/>
</svg>
