<svg width="20" height="20" viewBox="0 0 20 20" fill="none" xmlns="http://www.w3.org/2000/svg">
<path d="M8.74887 7.50186C8.8957 7.08447 9.18552 6.7325 9.56699 6.50831C9.94845 6.28412 10.397 6.20217 10.8331 6.27697C11.2692 6.35177 11.6647 6.57851 11.9497 6.917C12.2346 7.2555 12.3906 7.68393 12.3899 8.1264C12.3899 9.37547 10.5163 10 10.5163 10M10.5405 12.5H10.5488M10.4155 16.6667C14.3276 16.6667 17.4989 13.4953 17.4989 9.58333C17.4989 5.67132 14.3276 2.5 10.4155 2.5C6.50352 2.5 3.33221 5.67132 3.33221 9.58333C3.33221 10.375 3.46208 11.1363 3.70168 11.8472C3.79185 12.1147 3.83693 12.2484 3.84506 12.3512C3.85309 12.4527 3.84702 12.5238 3.82192 12.6225C3.7965 12.7223 3.74037 12.8262 3.62812 13.034L2.26507 15.557C2.07064 15.9168 1.97343 16.0968 1.99519 16.2356C2.01414 16.3566 2.08533 16.4631 2.18985 16.5269C2.30985 16.6001 2.51329 16.579 2.92016 16.537L7.18768 16.0958C7.31691 16.0825 7.38153 16.0758 7.44042 16.0781C7.49835 16.0803 7.53924 16.0857 7.59573 16.0987C7.65317 16.112 7.72539 16.1398 7.86984 16.1954C8.65988 16.4998 9.51823 16.6667 10.4155 16.6667Z" stroke="black" stroke-width="1.5" stroke-linecap="round" stroke-linejoin="round"/>
</svg>
