<svg width="30" height="30" viewBox="0 0 30 30" fill="none" xmlns="http://www.w3.org/2000/svg">
<rect x="1" y="1" width="28" height="28" rx="14" fill="white"/>
<path fill-rule="evenodd" clip-rule="evenodd" d="M18.332 8.33268C18.332 7.96449 18.0336 7.66602 17.6654 7.66602C17.2972 7.66602 16.9987 7.96449 16.9987 8.33268V8.99935H12.9987V8.33268C12.9987 7.96449 12.7002 7.66602 12.332 7.66602C11.9638 7.66602 11.6654 7.96449 11.6654 8.33268V9.00043C11.3484 9.00261 11.0714 9.00916 10.8308 9.02881C10.4561 9.05943 10.1116 9.12514 9.78806 9.29C9.28629 9.54566 8.87834 9.95361 8.62268 10.4554C8.45782 10.7789 8.39211 11.1234 8.36149 11.4981C8.33202 11.8589 8.33202 12.3018 8.33203 12.8385V18.4936C8.33202 19.0302 8.33202 19.4731 8.36149 19.8339C8.39211 20.2086 8.45782 20.5531 8.62268 20.8767C8.87834 21.3784 9.28629 21.7864 9.78806 22.042C10.1116 22.2069 10.4561 22.2726 10.8308 22.3032C11.1916 22.3327 11.6345 22.3327 12.1711 22.3327H17.8262C18.3629 22.3327 18.8058 22.3327 19.1666 22.3032C19.5413 22.2726 19.8858 22.2069 20.2093 22.042C20.7111 21.7864 21.1191 21.3784 21.3747 20.8767C21.5396 20.5531 21.6053 20.2086 21.6359 19.8339C21.6654 19.4731 21.6654 19.0302 21.6654 18.4936V12.8385C21.6654 12.3018 21.6654 11.8589 21.6359 11.4981C21.6053 11.1234 21.5396 10.7789 21.3747 10.4554C21.1191 9.95361 20.7111 9.54566 20.2093 9.29C19.8858 9.12514 19.5413 9.05943 19.1666 9.02881C18.926 9.00916 18.649 9.00261 18.332 9.00043V8.33268ZM11.6654 10.9993V10.3339C11.3683 10.3359 11.1351 10.3417 10.9394 10.3577C10.6471 10.3816 10.4976 10.4249 10.3934 10.478C10.1425 10.6058 9.93852 10.8098 9.81069 11.0607C9.75756 11.165 9.71428 11.3144 9.6904 11.6067C9.66588 11.9068 9.66537 12.295 9.66537 12.866V12.9993H20.332V12.866C20.332 12.295 20.3315 11.9068 20.307 11.6067C20.2831 11.3144 20.2398 11.165 20.1867 11.0607C20.0589 10.8098 19.8549 10.6058 19.604 10.478C19.4998 10.4249 19.3503 10.3816 19.058 10.3577C18.8623 10.3417 18.629 10.3359 18.332 10.3339V10.9993C18.332 11.3675 18.0336 11.666 17.6654 11.666C17.2972 11.666 16.9987 11.3675 16.9987 10.9993V10.3327H12.9987V10.9993C12.9987 11.3675 12.7002 11.666 12.332 11.666C11.9638 11.666 11.6654 11.3675 11.6654 10.9993ZM12.9987 16.9993C12.6305 16.9993 12.332 17.2978 12.332 17.666C12.332 18.0342 12.6305 18.3327 12.9987 18.3327H16.9987C17.3669 18.3327 17.6654 18.0342 17.6654 17.666C17.6654 17.2978 17.3669 16.9993 16.9987 16.9993H12.9987Z" fill="#B3B3B3"/>
<rect x="1" y="1" width="28" height="28" rx="14" stroke="#EAE7E6" stroke-linecap="round" stroke-linejoin="round" stroke-dasharray="1 3"/>
</svg>
