<svg width="18" height="16" viewBox="0 0 18 16" fill="none" xmlns="http://www.w3.org/2000/svg">
<path d="M7.75182 8.00031H3.16849M3.09794 8.24323L1.15217 14.0555C0.999312 14.5121 0.922882 14.7404 0.977732 14.881C1.02536 15.0031 1.12767 15.0957 1.2539 15.1309C1.39927 15.1715 1.61882 15.0727 2.05793 14.8751L15.9842 8.60826C16.4128 8.41539 16.6271 8.31895 16.6933 8.18499C16.7508 8.0686 16.7508 7.93203 16.6933 7.81564C16.6271 7.68168 16.4128 7.58524 15.9842 7.39237L2.05308 1.12342C1.61529 0.926414 1.3964 0.827912 1.25118 0.868319C1.12506 0.90341 1.02277 0.995732 0.974972 1.1176C0.919934 1.25793 0.995548 1.48574 1.14678 1.94137L3.09848 7.82159C3.12446 7.89984 3.13744 7.93897 3.14257 7.97899C3.14712 8.0145 3.14707 8.05045 3.14243 8.08594C3.1372 8.12595 3.12412 8.16504 3.09794 8.24323Z" stroke="black" stroke-width="1.5" stroke-linecap="round" stroke-linejoin="round"/>
</svg>
