<svg width="16" height="16" viewBox="0 0 16 16" fill="none" xmlns="http://www.w3.org/2000/svg">
<path d="M7.00098 9.00012L14.001 2.00012M7.08604 9.21883L8.83811 13.7242C8.99246 14.1211 9.06964 14.3195 9.18084 14.3774C9.27724 14.4277 9.39207 14.4277 9.48853 14.3776C9.5998 14.3198 9.67721 14.1215 9.83202 13.7247L14.2256 2.46625C14.3653 2.10813 14.4352 1.92907 14.397 1.81465C14.3638 1.71528 14.2858 1.6373 14.1865 1.60411C14.072 1.56588 13.893 1.63576 13.5349 1.77552L2.27635 6.16908C1.87964 6.32389 1.68128 6.4013 1.62347 6.51257C1.57336 6.60903 1.57343 6.72386 1.62365 6.82026C1.68159 6.93146 1.88004 7.00864 2.27694 7.16299L6.78227 8.91506C6.86284 8.94639 6.90312 8.96206 6.93704 8.98625C6.96711 9.0077 6.9934 9.03399 7.01485 9.06406C7.03904 9.09798 7.05471 9.13826 7.08604 9.21883Z" stroke="#294753" stroke-width="1.5" stroke-linecap="round" stroke-linejoin="round"/>
</svg>
