<svg width="20" height="20" viewBox="0 0 20 20" fill="none" xmlns="http://www.w3.org/2000/svg">
<path d="M7.83083 16.1439L8.31787 17.2393C8.46265 17.5653 8.69893 17.8424 8.99805 18.0368C9.29718 18.2312 9.64629 18.3347 10.0031 18.3346C10.3598 18.3347 10.7089 18.2312 11.008 18.0368C11.3072 17.8424 11.5435 17.5653 11.6882 17.2393L12.1753 16.1439C12.3486 15.7552 12.6403 15.4312 13.0086 15.218C13.3793 15.0042 13.8081 14.9131 14.2336 14.9578L15.4253 15.0846C15.78 15.1222 16.138 15.056 16.4558 14.8941C16.7737 14.7322 17.0378 14.4816 17.216 14.1726C17.3945 13.8638 17.4795 13.5099 17.4608 13.1537C17.4421 12.7975 17.3204 12.4545 17.1105 12.1661L16.4049 11.1967C16.1537 10.8489 16.0194 10.4303 16.0216 10.0013C16.0215 9.57346 16.157 9.15659 16.4086 8.81056L17.1142 7.84112C17.3241 7.55276 17.4458 7.20969 17.4645 6.85353C17.4832 6.49737 17.3982 6.14342 17.2197 5.83464C17.0415 5.52566 16.7774 5.27504 16.4595 5.11316C16.1417 4.95127 15.7837 4.88508 15.429 4.9226L14.2373 5.04945C13.8118 5.09414 13.383 5.00307 13.0123 4.78927C12.6433 4.57485 12.3515 4.2491 12.179 3.85871L11.6882 2.76334C11.5435 2.43728 11.3072 2.16023 11.008 1.9658C10.7089 1.77137 10.3598 1.66791 10.0031 1.66797C9.64629 1.66791 9.29718 1.77137 8.99805 1.9658C8.69893 2.16023 8.46265 2.43728 8.31787 2.76334L7.83083 3.85871C7.65827 4.2491 7.36656 4.57485 6.9975 4.78927C6.62684 5.00307 6.19805 5.09414 5.7725 5.04945L4.57713 4.9226C4.2224 4.88508 3.86441 4.95127 3.54655 5.11316C3.2287 5.27504 2.96464 5.52566 2.78638 5.83464C2.6079 6.14342 2.52287 6.49737 2.54161 6.85353C2.56034 7.20969 2.68204 7.55276 2.89194 7.84112L3.5975 8.81056C3.84911 9.15659 3.98461 9.57346 3.98453 10.0013C3.98461 10.4291 3.84911 10.846 3.5975 11.192L2.89194 12.1615C2.68204 12.4498 2.56034 12.7929 2.54161 13.1491C2.52287 13.5052 2.6079 13.8592 2.78638 14.168C2.96481 14.4768 3.22891 14.7273 3.54672 14.8891C3.86452 15.051 4.22243 15.1173 4.57713 15.08L5.76879 14.9532C6.19435 14.9085 6.62314 14.9995 6.99379 15.2133C7.36423 15.4272 7.6573 15.753 7.83083 16.1439Z" stroke="#005AA3" stroke-width="1.5" stroke-linecap="round" stroke-linejoin="round"/>
<path d="M10.0016 12.5013C11.3823 12.5013 12.5016 11.382 12.5016 10.0013C12.5016 8.62059 11.3823 7.5013 10.0016 7.5013C8.62085 7.5013 7.50156 8.62059 7.50156 10.0013C7.50156 11.382 8.62085 12.5013 10.0016 12.5013Z" stroke="#005AA3" stroke-width="1.5" stroke-linecap="round" stroke-linejoin="round"/>
</svg>
