<svg width="20" height="20" viewBox="0 0 20 20" fill="none" xmlns="http://www.w3.org/2000/svg">
<path d="M7.82888 16.1439L8.31591 17.2393C8.4607 17.5653 8.69698 17.8424 8.9961 18.0368C9.29523 18.2312 9.64434 18.3347 10.0011 18.3346C10.3579 18.3347 10.707 18.2312 11.0061 18.0368C11.3052 17.8424 11.5415 17.5653 11.6863 17.2393L12.1733 16.1439C12.3467 15.7552 12.6383 15.4312 13.0067 15.218C13.3773 15.0042 13.8061 14.9131 14.2317 14.9578L15.4233 15.0846C15.778 15.1222 16.136 15.056 16.4539 14.8941C16.7717 14.7322 17.0358 14.4816 17.2141 14.1726C17.3925 13.8638 17.4776 13.5099 17.4588 13.1537C17.4401 12.7975 17.3184 12.4545 17.1085 12.1661L16.403 11.1967C16.1517 10.8489 16.0175 10.4303 16.0196 10.0013C16.0195 9.57346 16.155 9.15659 16.4067 8.81056L17.1122 7.84112C17.3221 7.55276 17.4438 7.20969 17.4625 6.85353C17.4813 6.49737 17.3962 6.14342 17.2178 5.83464C17.0395 5.52566 16.7755 5.27504 16.4576 5.11316C16.1397 4.95127 15.7818 4.88508 15.427 4.9226L14.2354 5.04945C13.8098 5.09414 13.381 5.00307 13.0104 4.78927C12.6413 4.57485 12.3496 4.2491 12.177 3.85871L11.6863 2.76334C11.5415 2.43728 11.3052 2.16023 11.0061 1.9658C10.707 1.77137 10.3579 1.66791 10.0011 1.66797C9.64434 1.66791 9.29523 1.77137 8.9961 1.9658C8.69698 2.16023 8.4607 2.43728 8.31591 2.76334L7.82888 3.85871C7.65632 4.2491 7.3646 4.57485 6.99554 4.78927C6.62489 5.00307 6.1961 5.09414 5.77054 5.04945L4.57517 4.9226C4.22045 4.88508 3.86246 4.95127 3.5446 5.11316C3.22675 5.27504 2.96269 5.52566 2.78443 5.83464C2.60595 6.14342 2.52092 6.49737 2.53965 6.85353C2.55839 7.20969 2.68009 7.55276 2.88999 7.84112L3.59554 8.81056C3.84716 9.15659 3.98266 9.57346 3.98258 10.0013C3.98266 10.4291 3.84716 10.846 3.59554 11.192L2.88999 12.1615C2.68009 12.4498 2.55839 12.7929 2.53965 13.1491C2.52092 13.5052 2.60595 13.8592 2.78443 14.168C2.96286 14.4768 3.22696 14.7273 3.54476 14.8891C3.86257 15.051 4.22047 15.1173 4.57517 15.08L5.76684 14.9532C6.1924 14.9085 6.62119 14.9995 6.99184 15.2133C7.36228 15.4272 7.65535 15.753 7.82888 16.1439Z" stroke="#667085" stroke-width="1.66667" stroke-linecap="round" stroke-linejoin="round"/>
<path d="M9.99961 12.5013C11.3803 12.5013 12.4996 11.382 12.4996 10.0013C12.4996 8.62059 11.3803 7.5013 9.99961 7.5013C8.6189 7.5013 7.49961 8.62059 7.49961 10.0013C7.49961 11.382 8.6189 12.5013 9.99961 12.5013Z" stroke="#667085" stroke-width="1.66667" stroke-linecap="round" stroke-linejoin="round"/>
</svg>
