<svg width="40" height="40" viewBox="0 0 40 40" fill="none" xmlns="http://www.w3.org/2000/svg">
<rect width="40" height="40" rx="20" fill="#CCE7FD"/>
<path d="M17.8308 26.1419L18.3179 27.2373C18.4626 27.5634 18.6989 27.8404 18.9981 28.0349C19.2972 28.2293 19.6463 28.3327 20.0031 28.3327C20.3598 28.3327 20.7089 28.2293 21.008 28.0349C21.3072 27.8404 21.5435 27.5634 21.6882 27.2373L22.1753 26.1419C22.3486 25.7533 22.6403 25.4292 23.0086 25.216C23.3793 25.0022 23.8081 24.9111 24.2336 24.9558L25.4253 25.0827C25.78 25.1202 26.138 25.054 26.4558 24.8921C26.7737 24.7302 27.0378 24.4796 27.216 24.1706C27.3945 23.8619 27.4795 23.5079 27.4608 23.1518C27.4421 22.7956 27.3204 22.4525 27.1105 22.1642L26.4049 21.1947C26.1537 20.847 26.0194 20.4284 26.0216 19.9993C26.0215 19.5715 26.157 19.1546 26.4086 18.8086L27.1142 17.8392C27.3241 17.5508 27.4458 17.2077 27.4645 16.8516C27.4832 16.4954 27.3982 16.1415 27.2197 15.8327C27.0415 15.5237 26.7774 15.2731 26.4595 15.1112C26.1417 14.9493 25.7837 14.8831 25.429 14.9206L24.2373 15.0475C23.8118 15.0922 23.383 15.0011 23.0123 14.7873C22.6433 14.5729 22.3515 14.2471 22.179 13.8568L21.6882 12.7614C21.5435 12.4353 21.3072 12.1583 21.008 11.9638C20.7089 11.7694 20.3598 11.666 20.0031 11.666C19.6463 11.666 19.2972 11.7694 18.9981 11.9638C18.6989 12.1583 18.4626 12.4353 18.3179 12.7614L17.8308 13.8568C17.6583 14.2471 17.3666 14.5729 16.9975 14.7873C16.6268 15.0011 16.1981 15.0922 15.7725 15.0475L14.5771 14.9206C14.2224 14.8831 13.8644 14.9493 13.5466 15.1112C13.2287 15.2731 12.9646 15.5237 12.7864 15.8327C12.6079 16.1415 12.5229 16.4954 12.5416 16.8516C12.5603 17.2077 12.682 17.5508 12.8919 17.8392L13.5975 18.8086C13.8491 19.1546 13.9846 19.5715 13.9845 19.9993C13.9846 20.4272 13.8491 20.8441 13.5975 21.1901L12.8919 22.1595C12.682 22.4479 12.5603 22.791 12.5416 23.1471C12.5229 23.5033 12.6079 23.8572 12.7864 24.166C12.9648 24.4748 13.2289 24.7253 13.5467 24.8872C13.8645 25.049 14.2224 25.1153 14.5771 25.0781L15.7688 24.9512C16.1944 24.9065 16.6231 24.9976 16.9938 25.2114C17.3642 25.4252 17.6573 25.751 17.8308 26.1419Z" stroke="#005AA3" stroke-width="1.5" stroke-linecap="round" stroke-linejoin="round"/>
<path d="M20.0016 22.4993C21.3823 22.4993 22.5016 21.3801 22.5016 19.9993C22.5016 18.6186 21.3823 17.4993 20.0016 17.4993C18.6209 17.4993 17.5016 18.6186 17.5016 19.9993C17.5016 21.3801 18.6209 22.4993 20.0016 22.4993Z" stroke="#005AA3" stroke-width="1.5" stroke-linecap="round" stroke-linejoin="round"/>
</svg>
