<svg width="18" height="16" viewBox="0 0 18 16" fill="none" xmlns="http://www.w3.org/2000/svg">
<path d="M9.75 4.25H3.9C3.05992 4.25 2.63988 4.25 2.31901 4.41349C2.03677 4.5573 1.8073 4.78677 1.66349 5.06901C1.5 5.38988 1.5 5.80992 1.5 6.65V9.35C1.5 10.1901 1.5 10.6101 1.66349 10.931C1.8073 11.2132 2.03677 11.4427 2.31901 11.5865C2.63988 11.75 3.05992 11.75 3.9 11.75H9.75M12.75 4.25H14.1C14.9401 4.25 15.3601 4.25 15.681 4.41349C15.9632 4.5573 16.1927 4.78677 16.3365 5.06901C16.5 5.38988 16.5 5.80992 16.5 6.65V9.35C16.5 10.1901 16.5 10.6101 16.3365 10.931C16.1927 11.2132 15.9632 11.4427 15.681 11.5865C15.3601 11.75 14.9401 11.75 14.1 11.75H12.75M12.75 14.75L12.75 1.25M14.625 1.25001L10.875 1.25M14.625 14.75L10.875 14.75" stroke="black" stroke-width="1.5" stroke-linecap="round" stroke-linejoin="round"/>
</svg>
