<svg width="10" height="11" viewBox="0 0 10 11" fill="none" xmlns="http://www.w3.org/2000/svg">
<path fill-rule="evenodd" clip-rule="evenodd" d="M2.87935 0.5H7.12065C7.52313 0.499994 7.85532 0.499989 8.12591 0.522098C8.40696 0.54506 8.66531 0.594342 8.90798 0.717988C9.28431 0.909735 9.59027 1.2157 9.78201 1.59202C9.90566 1.83469 9.95494 2.09304 9.9779 2.37409C10 2.64468 10 2.97686 10 3.37934V7.62066C10 8.02314 10 8.35532 9.9779 8.62591C9.95494 8.90696 9.90566 9.16531 9.78201 9.40798C9.59027 9.78431 9.28431 10.0903 8.90798 10.282C8.66531 10.4057 8.40696 10.4549 8.12591 10.4779C7.85532 10.5 7.52314 10.5 7.12066 10.5H2.87934C2.47686 10.5 2.14468 10.5 1.87409 10.4779C1.59304 10.4549 1.33469 10.4057 1.09202 10.282C0.715696 10.0903 0.409735 9.78431 0.217988 9.40798C0.0943423 9.16531 0.0450602 8.90696 0.0220976 8.62591C-1.07735e-05 8.35532 -5.81338e-06 8.02314 1.97346e-07 7.62066V3.37934C-5.81338e-06 2.97687 -1.07735e-05 2.64468 0.0220976 2.37409C0.0450602 2.09304 0.0943424 1.83469 0.217988 1.59202C0.409735 1.2157 0.715696 0.909735 1.09202 0.717988C1.33469 0.594342 1.59304 0.54506 1.87409 0.522098C2.14468 0.499989 2.47687 0.499994 2.87935 0.5ZM2.5 3C2.5 2.72386 2.72386 2.5 3 2.5H7C7.27614 2.5 7.5 2.72386 7.5 3C7.5 3.27614 7.27614 3.5 7 3.5H5.5V8C5.5 8.27614 5.27614 8.5 5 8.5C4.72386 8.5 4.5 8.27614 4.5 8V3.5H3C2.72386 3.5 2.5 3.27614 2.5 3Z" fill="#404040"/>
</svg>
