<svg width="36" height="36" viewBox="0 0 36 36" fill="none" xmlns="http://www.w3.org/2000/svg">
<path d="M21.3346 10.8898C22.5694 11.5034 23.418 12.7776 23.418 14.25C23.418 15.7224 22.5694 16.9966 21.3346 17.6102M23.0013 21.972C24.2609 22.5419 25.3951 23.4708 26.3346 24.6667M9.66797 24.6667C11.29 22.6021 13.4923 21.3333 15.918 21.3333C18.3437 21.3333 20.5459 22.6021 22.168 24.6667M19.668 14.25C19.668 16.3211 17.989 18 15.918 18C13.8469 18 12.168 16.3211 12.168 14.25C12.168 12.1789 13.8469 10.5 15.918 10.5C17.989 10.5 19.668 12.1789 19.668 14.25Z" stroke="black" stroke-width="1.5" stroke-linecap="round" stroke-linejoin="round"/>
<rect x="0.5" y="0.5" width="35" height="35" rx="17.5" stroke="#EDEFF1"/>
</svg>
