<svg width="16" height="21" viewBox="0 0 16 21" fill="none" xmlns="http://www.w3.org/2000/svg">
<path fill-rule="evenodd" clip-rule="evenodd" d="M12.3535 3.83203C13.3511 3.84139 14.1048 4.58534 14.5713 5.45175C15.0554 6.35081 15.3344 7.54708 15.3344 8.83194C15.3344 10.1168 15.0554 11.3131 14.5713 12.2121C14.1038 13.0804 13.3479 13.8256 12.3472 13.8319C10.7471 13.8609 8.96774 13.2307 7.3964 12.945L7.5792 15.3213C7.6458 16.1858 7.40094 17.0666 6.37377 17.153C5.6612 17.2129 4.90789 17.2112 4.19744 17.1549C3.34896 17.0877 2.98935 16.359 2.9335 15.5757L2.68333 12.0734C2.48959 12.0246 2.31728 11.9675 2.1587 11.8896C1.48061 11.5565 0.975623 10.9514 0.769209 10.2247C0.546266 9.43972 0.545095 8.22819 0.769209 7.43913C0.975623 6.71239 1.48061 6.10731 2.1587 5.77422C2.4939 5.60957 2.89049 5.53769 3.42108 5.44154C6.35516 4.90808 11.3344 3.83197 12.3535 3.83203ZM12.383 12.4965L12.0683 12.4392C11.8249 12.3344 11.5401 12.0789 11.2715 11.58C10.9111 10.9107 10.6678 9.94032 10.6678 8.83194C10.6678 7.72357 10.9111 6.75317 11.2715 6.08388C11.4939 5.67079 11.7274 5.42456 11.9393 5.29258C12.0219 5.24113 12.117 5.21568 12.2128 5.19827C12.3255 5.17777 12.4427 5.16664 12.5506 5.20502C12.8045 5.29526 13.1101 5.55044 13.3974 6.08388C13.7578 6.75317 14.0011 7.72357 14.0011 8.83194C14.0011 9.94032 13.7578 10.9107 13.3974 11.58C13.0434 12.2374 12.6615 12.4722 12.383 12.4965Z" fill="#503E0D"/>
</svg>
