<svg width="14" height="13" viewBox="0 0 14 13" fill="none" xmlns="http://www.w3.org/2000/svg">
<path d="M7.37627 1.0344C7.13806 0.920825 6.86132 0.920825 6.62311 1.0344C6.41718 1.13258 6.30365 1.30306 6.24639 1.39658C6.1872 1.49326 6.12644 1.61642 6.06721 1.73646L4.8097 4.28404L1.99684 4.69518C1.86443 4.71451 1.72856 4.73434 1.61836 4.76084C1.51175 4.78647 1.31464 4.84192 1.15777 5.00749C0.976305 5.19904 0.890962 5.46225 0.925507 5.72384C0.955368 5.94996 1.08244 6.11052 1.15373 6.19383C1.22741 6.27996 1.32579 6.37574 1.42167 6.46909L3.45622 8.45073L2.97616 11.2497C2.95349 11.3817 2.93024 11.5171 2.92129 11.6301C2.91264 11.7394 2.90427 11.9441 3.01318 12.1446C3.13915 12.3766 3.36308 12.5392 3.62259 12.5873C3.84694 12.6289 4.03902 12.5577 4.14031 12.5157C4.24505 12.4722 4.36663 12.4083 4.48513 12.3459L6.99969 11.0235L9.51425 12.3459C9.63276 12.4083 9.75434 12.4722 9.85907 12.5157C9.96036 12.5577 10.1524 12.6289 10.3768 12.5873C10.6363 12.5392 10.8602 12.3766 10.9862 12.1446C11.0951 11.9441 11.0867 11.7394 11.0781 11.6301C11.0691 11.5171 11.0459 11.3817 11.0232 11.2498L10.5432 8.45073L12.5777 6.46907C12.6736 6.37572 12.772 6.27995 12.8457 6.19383C12.9169 6.11052 13.044 5.94996 13.0739 5.72384C13.1084 5.46225 13.0231 5.19904 12.8416 5.00749C12.6847 4.84192 12.4876 4.78647 12.381 4.76084C12.2708 4.73434 12.1349 4.71451 12.0025 4.69518L9.18967 4.28404L7.93219 1.7365C7.87296 1.61645 7.81218 1.49326 7.75299 1.39658C7.69573 1.30306 7.58219 1.13258 7.37627 1.0344Z" fill="black"/>
</svg>
