<svg width="19" height="20" viewBox="0 0 19 20" fill="none" xmlns="http://www.w3.org/2000/svg">
<path d="M12.8346 13.3346C12.8346 13.3346 11.5846 11.668 9.5013 11.668C7.41797 11.668 6.16797 13.3346 6.16797 13.3346M13.668 7.7013C13.3388 8.10547 12.8888 8.33463 12.418 8.33463C11.9471 8.33463 11.5096 8.10547 11.168 7.7013M7.83464 7.7013C7.50547 8.10547 7.05547 8.33463 6.58464 8.33463C6.1138 8.33463 5.6763 8.10547 5.33464 7.7013M17.8346 10.0013C17.8346 14.6037 14.1037 18.3346 9.5013 18.3346C4.89893 18.3346 1.16797 14.6037 1.16797 10.0013C1.16797 5.39893 4.89893 1.66797 9.5013 1.66797C14.1037 1.66797 17.8346 5.39893 17.8346 10.0013Z" stroke="#F04545" stroke-width="1.66667" stroke-linecap="round" stroke-linejoin="round"/>
</svg>
