<svg width="16" height="16" viewBox="0 0 16 16" fill="none" xmlns="http://www.w3.org/2000/svg">
<g clip-path="url(#clip0_693_126732)">
<path d="M4.66536 14.6654V7.33203M1.33203 8.66536V13.332C1.33203 14.0684 1.92898 14.6654 2.66536 14.6654H11.6162C12.6033 14.6654 13.4428 13.9451 13.5929 12.9695L14.3109 8.30281C14.4973 7.0913 13.5599 5.9987 12.3341 5.9987H9.9987C9.63051 5.9987 9.33203 5.70022 9.33203 5.33203V2.97592C9.33203 2.06803 8.59604 1.33203 7.68814 1.33203C7.47159 1.33203 7.27535 1.45956 7.1874 1.65745L4.84132 6.93612C4.73432 7.17688 4.49557 7.33203 4.23212 7.33203H2.66536C1.92898 7.33203 1.33203 7.92899 1.33203 8.66536Z" stroke="#78BA44" stroke-width="1.5" stroke-linecap="round" stroke-linejoin="round"/>
</g>
<defs>
<clipPath id="clip0_693_126732">
<rect width="16" height="16" fill="white"/>
</clipPath>
</defs>
</svg>
