<svg width="14" height="15" viewBox="0 0 14 15" fill="none" xmlns="http://www.w3.org/2000/svg">
<path d="M9.66667 3.50065V2.96732C9.66667 2.22058 9.66667 1.84721 9.52134 1.562C9.39351 1.31111 9.18954 1.10714 8.93865 0.979309C8.65344 0.833984 8.28007 0.833984 7.53333 0.833984H6.46667C5.71993 0.833984 5.34656 0.833984 5.06135 0.979309C4.81046 1.10714 4.60649 1.31111 4.47866 1.562C4.33333 1.84721 4.33333 2.22058 4.33333 2.96732V3.50065M5.66667 7.16732V10.5007M8.33333 7.16732V10.5007M1 3.50065H13M11.6667 3.50065V10.9673C11.6667 12.0874 11.6667 12.6475 11.4487 13.0753C11.2569 13.4516 10.951 13.7576 10.5746 13.9493C10.1468 14.1673 9.58677 14.1673 8.46667 14.1673H5.53333C4.41323 14.1673 3.85318 14.1673 3.42535 13.9493C3.04903 13.7576 2.74307 13.4516 2.55132 13.0753C2.33333 12.6475 2.33333 12.0874 2.33333 10.9673V3.50065" stroke="#344054" stroke-width="1.5" stroke-linecap="round" stroke-linejoin="round"/>
</svg>
