<svg width="47" height="46" viewBox="0 0 47 46" fill="none" xmlns="http://www.w3.org/2000/svg">
<rect x="3.5" y="3" width="40" height="40" rx="20" fill="#F2F4F7"/>
<path d="M20.1665 26.3333L23.4998 23M23.4998 23L26.8332 26.3333M23.4998 23V30.5M30.1665 26.9524C31.1844 26.1117 31.8332 24.8399 31.8332 23.4167C31.8332 20.8854 29.7811 18.8333 27.2498 18.8333C27.0677 18.8333 26.8974 18.7383 26.8049 18.5814C25.7182 16.7374 23.7119 15.5 21.4165 15.5C17.9647 15.5 15.1665 18.2982 15.1665 21.75C15.1665 23.4718 15.8627 25.0309 16.989 26.1613" stroke="#475467" stroke-width="1.66667" stroke-linecap="round" stroke-linejoin="round"/>
<rect x="3.5" y="3" width="40" height="40" rx="20" stroke="#F9FAFB" stroke-width="6"/>
</svg>
