<svg width="47" height="46" viewBox="0 0 47 46" fill="none" xmlns="http://www.w3.org/2000/svg">
<rect x="3.5" y="3" width="40" height="40" rx="20" fill="#F2F4F7"/>
<path fill-rule="evenodd" clip-rule="evenodd" d="M23.5026 13.832C18.44 13.832 14.3359 17.9361 14.3359 22.9987C14.3359 28.0613 18.44 32.1654 23.5026 32.1654C28.5652 32.1654 32.6693 28.0613 32.6693 22.9987C32.6693 17.9361 28.5652 13.832 23.5026 13.832ZM19.58 22.4094L22.9133 19.0761C23.2388 18.7507 23.7664 18.7507 24.0919 19.0761L27.4252 22.4094C27.7506 22.7349 27.7506 23.2625 27.4252 23.588C27.0998 23.9134 26.5721 23.9134 26.2467 23.588L24.3359 21.6772V26.332C24.3359 26.7923 23.9628 27.1654 23.5026 27.1654C23.0424 27.1654 22.6693 26.7923 22.6693 26.332V21.6772L20.7585 23.588C20.4331 23.9134 19.9055 23.9134 19.58 23.588C19.2546 23.2625 19.2546 22.7349 19.58 22.4094Z" fill="#0087F4"/>
<rect x="3.5" y="3" width="40" height="40" rx="20" stroke="#F9FAFB" stroke-width="6"/>
</svg>
