<svg width="21" height="20" viewBox="0 0 21 20" fill="none" xmlns="http://www.w3.org/2000/svg">
<path d="M13.9544 3.33203L18.1211 7.4987M18.1211 3.33203L13.9544 7.4987M13.5378 17.4987V16.4987C13.5378 15.0986 13.5378 14.3985 13.2653 13.8637C13.0256 13.3933 12.6431 13.0109 12.1727 12.7712C11.638 12.4987 10.9379 12.4987 9.53776 12.4987H5.87109C4.47096 12.4987 3.7709 12.4987 3.23612 12.7712C2.76571 13.0109 2.38326 13.3933 2.14358 13.8637C1.87109 14.3985 1.87109 15.0986 1.87109 16.4987V17.4987M10.6211 6.2487C10.6211 7.85953 9.31526 9.16536 7.70443 9.16536C6.0936 9.16536 4.78776 7.85953 4.78776 6.2487C4.78776 4.63787 6.0936 3.33203 7.70443 3.33203C9.31526 3.33203 10.6211 4.63787 10.6211 6.2487Z" stroke="#294753" stroke-width="1.5" stroke-linecap="round" stroke-linejoin="round"/>
</svg>
