<svg width="21" height="20" viewBox="0 0 21 20" fill="none" xmlns="http://www.w3.org/2000/svg">
<path d="M15.6009 13.1974C16.8142 13.8069 17.8544 14.785 18.6136 16.008C18.764 16.2502 18.8392 16.3713 18.8652 16.539C18.918 16.8798 18.6849 17.2988 18.3676 17.4336C18.2114 17.5 18.0357 17.5 17.6843 17.5M13.9343 9.6102C15.169 8.99657 16.0176 7.72238 16.0176 6.25C16.0176 4.77762 15.169 3.50343 13.9343 2.8898M12.2676 6.25C12.2676 8.32107 10.5887 10 8.5176 10C6.44654 10 4.7676 8.32107 4.7676 6.25C4.7676 4.17893 6.44654 2.5 8.5176 2.5C10.5887 2.5 12.2676 4.17893 12.2676 6.25ZM2.73363 15.782C4.06222 13.7871 6.15875 12.5 8.5176 12.5C10.8765 12.5 12.973 13.7871 14.3016 15.782C14.5926 16.219 14.7382 16.4375 14.7214 16.7166C14.7084 16.9339 14.5659 17.2 14.3922 17.3313C14.1692 17.5 13.8625 17.5 13.249 17.5H3.78624C3.17275 17.5 2.866 17.5 2.64297 17.3313C2.46931 17.2 2.32685 16.9339 2.3138 16.7166C2.29705 16.4375 2.44257 16.219 2.73363 15.782Z" stroke="#294753" stroke-width="1.5" stroke-linecap="round" stroke-linejoin="round"/>
</svg>
