<svg width="32" height="32" viewBox="0 0 32 32" fill="none" xmlns="http://www.w3.org/2000/svg">
<path fill-rule="evenodd" clip-rule="evenodd" d="M4.55733 24.4054C7.18795 20.924 11.3316 18.668 15.9998 18.668C20.668 18.668 24.8117 20.924 27.4423 24.4055C27.4542 24.4212 27.4661 24.437 27.4781 24.4528C27.7043 24.7519 27.9468 25.0727 28.1201 25.3821C28.3299 25.7566 28.4854 26.1898 28.4757 26.7167C28.468 27.1403 28.3397 27.5368 28.1838 27.8498C28.028 28.1629 27.789 28.5043 27.4558 28.7658C27.0113 29.1146 26.5275 29.238 26.0976 29.2896C25.7205 29.3348 25.2736 29.3347 24.8242 29.3346C24.804 29.3346 24.7837 29.3346 24.7635 29.3346H7.23611C7.21586 29.3346 7.19561 29.3346 7.17537 29.3346C6.72603 29.3347 6.27912 29.3348 5.90199 29.2896C5.47214 29.238 4.98827 29.1146 4.54383 28.7658C4.21057 28.5043 3.9716 28.1629 3.81577 27.8498C3.65993 27.5368 3.53161 27.1403 3.52386 26.7167C3.51423 26.1898 3.6697 25.7566 3.87948 25.3821C4.0528 25.0727 4.29532 24.7519 4.52151 24.4528C4.5335 24.437 4.54544 24.4212 4.55733 24.4054Z" fill="#D1D1D1"/>
<path fill-rule="evenodd" clip-rule="evenodd" d="M8.66647 10.0013C8.66647 5.95121 11.9497 2.66797 15.9998 2.66797C20.0499 2.66797 23.3331 5.95121 23.3331 10.0013C23.3331 14.0514 20.0499 17.3346 15.9998 17.3346C11.9497 17.3346 8.66647 14.0514 8.66647 10.0013Z" fill="#D1D1D1"/>
</svg>
