<svg width="13" height="13" viewBox="0 0 13 13" fill="none" xmlns="http://www.w3.org/2000/svg">
<g clip-path="url(#clip0_297_4791)">
<path d="M8.75 2.23388C9.49086 2.60206 10 3.36657 10 4.25C10 5.13343 9.49086 5.89794 8.75 6.26612M9.75 8.88319C10.5057 9.22517 11.1863 9.78249 11.75 10.5M1.75 10.5C2.72325 9.26129 4.04459 8.5 5.5 8.5C6.95541 8.5 8.27675 9.26129 9.25 10.5M7.75 4.25C7.75 5.49264 6.74264 6.5 5.5 6.5C4.25736 6.5 3.25 5.49264 3.25 4.25C3.25 3.00736 4.25736 2 5.5 2C6.74264 2 7.75 3.00736 7.75 4.25Z" stroke="#667085" stroke-width="1.5" stroke-linecap="round" stroke-linejoin="round"/>
</g>
<defs>
<clipPath id="clip0_297_4791">
<rect width="12" height="12" fill="white" transform="translate(0.75 0.5)"/>
</clipPath>
</defs>
</svg>
