<svg width="20" height="21" viewBox="0 0 20 21" fill="none" xmlns="http://www.w3.org/2000/svg">
<path d="M13.3332 3.3898C14.5679 4.00343 15.4165 5.27762 15.4165 6.75C15.4165 8.22238 14.5679 9.49657 13.3332 10.1102M14.9998 14.472C16.2594 15.0419 17.3936 15.9708 18.3332 17.1667M1.6665 17.1667C3.28858 15.1021 5.49082 13.8333 7.9165 13.8333C10.3422 13.8333 12.5444 15.1021 14.1665 17.1667M11.6665 6.75C11.6665 8.82107 9.98757 10.5 7.9165 10.5C5.84544 10.5 4.1665 8.82107 4.1665 6.75C4.1665 4.67893 5.84544 3 7.9165 3C9.98757 3 11.6665 4.67893 11.6665 6.75Z" stroke="black" stroke-width="1.5" stroke-linecap="round" stroke-linejoin="round"/>
</svg>
