<svg width="18" height="18" viewBox="0 0 18 18" fill="none" xmlns="http://www.w3.org/2000/svg">
<path d="M16.5 6.69853C16.5 6.24417 16.5 6.01699 16.4102 5.91179C16.3322 5.82051 16.2152 5.77207 16.0956 5.78149C15.9577 5.79234 15.797 5.95298 15.4757 6.27426L12.75 9L15.4757 11.7257C15.797 12.047 15.9577 12.2077 16.0956 12.2185C16.2152 12.2279 16.3322 12.1795 16.4102 12.0882C16.5 11.983 16.5 11.7558 16.5 11.3015V6.69853Z" stroke="black" stroke-width="1.5" stroke-linecap="round" stroke-linejoin="round"/>
<path d="M1.5 7.35C1.5 6.08988 1.5 5.45982 1.74524 4.97852C1.96095 4.55516 2.30516 4.21095 2.72852 3.99524C3.20982 3.75 3.83988 3.75 5.1 3.75H9.15C10.4101 3.75 11.0402 3.75 11.5215 3.99524C11.9448 4.21095 12.289 4.55516 12.5048 4.97852C12.75 5.45982 12.75 6.08988 12.75 7.35V10.65C12.75 11.9101 12.75 12.5402 12.5048 13.0215C12.289 13.4448 11.9448 13.789 11.5215 14.0048C11.0402 14.25 10.4101 14.25 9.15 14.25H5.1C3.83988 14.25 3.20982 14.25 2.72852 14.0048C2.30516 13.789 1.96095 13.4448 1.74524 13.0215C1.5 12.5402 1.5 11.9101 1.5 10.65V7.35Z" stroke="black" stroke-width="1.5" stroke-linecap="round" stroke-linejoin="round"/>
</svg>
