<svg width="16" height="17" viewBox="0 0 16 17" fill="none" xmlns="http://www.w3.org/2000/svg">
<g clip-path="url(#clip0_174_720)">
<path fill-rule="evenodd" clip-rule="evenodd" d="M1.53597 5.03744C0.982132 6.06903 0.667969 7.24848 0.667969 8.5013C0.667969 12.5514 3.95121 15.8346 8.0013 15.8346C9.25413 15.8346 10.4336 15.5205 11.4652 14.9666L7.3482 10.8497L7.15637 10.973C6.88872 11.145 6.75489 11.2311 6.64422 11.2232C6.54778 11.2163 6.45908 11.1679 6.40113 11.0905C6.33464 11.0016 6.33464 10.8425 6.33464 10.5244V9.8361L1.53597 5.03744ZM14.8071 11.2375C15.1474 10.392 15.3346 9.46854 15.3346 8.5013C15.3346 4.45121 12.0514 1.16797 8.0013 1.16797C7.03406 1.16797 6.11056 1.35523 5.26507 1.69547L14.8071 11.2375Z" fill="#B3B3B3"/>
<rect x="0.363281" y="1.86328" width="2" height="19.8047" rx="1" transform="rotate(-45 0.363281 1.86328)" fill="#B3B3B3"/>
</g>
<defs>
<clipPath id="clip0_174_720">
<rect width="16" height="16" fill="white" transform="translate(0 0.5)"/>
</clipPath>
</defs>
</svg>
