<svg width="16" height="17" viewBox="0 0 16 17" fill="none" xmlns="http://www.w3.org/2000/svg">
<path fill-rule="evenodd" clip-rule="evenodd" d="M8.0013 1.16797C3.95121 1.16797 0.667969 4.45121 0.667969 8.5013C0.667969 12.5514 3.95121 15.8346 8.0013 15.8346C12.0514 15.8346 15.3346 12.5514 15.3346 8.5013C15.3346 4.45121 12.0514 1.16797 8.0013 1.16797ZM6.40113 5.91202C6.33464 6.00084 6.33464 6.15994 6.33464 6.47813V10.5244C6.33464 10.8425 6.33464 11.0016 6.40113 11.0905C6.45908 11.1679 6.54778 11.2163 6.64422 11.2232C6.75489 11.2311 6.88872 11.145 7.15637 10.973L10.3034 8.94987C10.5357 8.80056 10.6518 8.72591 10.6919 8.63098C10.727 8.54804 10.727 8.45444 10.6919 8.3715C10.6518 8.27657 10.5357 8.20192 10.3034 8.05261L7.15637 6.0295C6.88872 5.85743 6.75489 5.7714 6.64422 5.77931C6.54778 5.7862 6.45908 5.83462 6.40113 5.91202Z" fill="#B3B3B3"/>
</svg>
