<svg width="20" height="20" viewBox="0 0 20 20" fill="none" xmlns="http://www.w3.org/2000/svg">
<path d="M13.3346 13.3327C13.3346 13.3327 12.0846 11.666 10.0013 11.666C7.91797 11.666 6.66797 13.3327 6.66797 13.3327M12.5013 7.49935H12.5096M7.5013 7.49935H7.50964M18.3346 9.99935C18.3346 14.6017 14.6037 18.3327 10.0013 18.3327C5.39893 18.3327 1.66797 14.6017 1.66797 9.99935C1.66797 5.39698 5.39893 1.66602 10.0013 1.66602C14.6037 1.66602 18.3346 5.39698 18.3346 9.99935ZM12.918 7.49935C12.918 7.72947 12.7314 7.91602 12.5013 7.91602C12.2712 7.91602 12.0846 7.72947 12.0846 7.49935C12.0846 7.26923 12.2712 7.08268 12.5013 7.08268C12.7314 7.08268 12.918 7.26923 12.918 7.49935ZM7.91797 7.49935C7.91797 7.72947 7.73142 7.91602 7.5013 7.91602C7.27118 7.91602 7.08464 7.72947 7.08464 7.49935C7.08464 7.26923 7.27118 7.08268 7.5013 7.08268C7.73142 7.08268 7.91797 7.26923 7.91797 7.49935Z" stroke="#FFFEFA" stroke-width="1.66667" stroke-linecap="round" stroke-linejoin="round"/>
</svg>
