<svg width="19" height="20" viewBox="0 0 19 20" fill="none" xmlns="http://www.w3.org/2000/svg">
<path d="M12.8346 13.3327C12.8346 13.3327 11.5846 11.666 9.5013 11.666C7.41797 11.666 6.16797 13.3327 6.16797 13.3327M13.668 7.69935C13.3388 8.10351 12.8888 8.33268 12.418 8.33268C11.9471 8.33268 11.5096 8.10351 11.168 7.69935M7.83464 7.69935C7.50547 8.10351 7.05547 8.33268 6.58464 8.33268C6.1138 8.33268 5.6763 8.10351 5.33464 7.69935M17.8346 9.99935C17.8346 14.6017 14.1037 18.3327 9.5013 18.3327C4.89893 18.3327 1.16797 14.6017 1.16797 9.99935C1.16797 5.39698 4.89893 1.66602 9.5013 1.66602C14.1037 1.66602 17.8346 5.39698 17.8346 9.99935Z" stroke="white" stroke-width="1.66667" stroke-linecap="round" stroke-linejoin="round"/>
</svg>
