<svg width="18" height="18" viewBox="0 0 18 18" fill="none" xmlns="http://www.w3.org/2000/svg">
<path d="M6 10.5C6 10.5 7.125 12 9 12C10.875 12 12 10.5 12 10.5M11.25 6.75H11.2575M6.75 6.75H6.7575M16.5 9C16.5 13.1421 13.1421 16.5 9 16.5C4.85786 16.5 1.5 13.1421 1.5 9C1.5 4.85786 4.85786 1.5 9 1.5C13.1421 1.5 16.5 4.85786 16.5 9ZM11.625 6.75C11.625 6.95711 11.4571 7.125 11.25 7.125C11.0429 7.125 10.875 6.95711 10.875 6.75C10.875 6.54289 11.0429 6.375 11.25 6.375C11.4571 6.375 11.625 6.54289 11.625 6.75ZM7.125 6.75C7.125 6.95711 6.95711 7.125 6.75 7.125C6.54289 7.125 6.375 6.95711 6.375 6.75C6.375 6.54289 6.54289 6.375 6.75 6.375C6.95711 6.375 7.125 6.54289 7.125 6.75Z" stroke="black" stroke-width="1.5" stroke-linecap="round" stroke-linejoin="round"/>
</svg>
